<?xml version="1.0" encoding="iso-8859-1"?>
<!-- Generator: Adobe Illustrator 19.0.0, SVG Export Plug-In . SVG Version: 6.00 Build 0)  -->
<svg xmlns="http://www.w3.org/2000/svg" xmlns:xlink="http://www.w3.org/1999/xlink" version="1.1" id="Layer_1" x="0px" y="0px" viewBox="0 0 406.055 406.055" style="enable-background:new 0 0 406.055 406.055;" xml:space="preserve" width="512" height="512">
<g>
	<g>
		<g>
			<path style="fill:#707789;" d="M94.325,137.874h16.404c6.579,0,10.346-7.5,6.417-12.778l-8.202-11.016     c-3.199-4.297-9.635-4.297-12.834,0l-8.202,11.016C83.979,130.374,87.746,137.874,94.325,137.874z"/>
		</g>
		<g>
			<path style="fill:#707789;" d="M295.325,137.874h16.404c6.579,0,10.346-7.5,6.417-12.778l-8.202-11.016     c-3.199-4.297-9.635-4.297-12.834,0l-8.202,11.016C284.979,130.374,288.746,137.874,295.325,137.874z"/>
		</g>
	</g>
	<rect x="36.648" y="128.681" style="fill:#F1723F;" width="332.758" height="136.786"/>
	<rect x="36.648" y="128.681" style="fill:#C86236;" width="166.379" height="136.786"/>
	<rect x="36.648" y="160.928" style="fill:#F79F4B;" width="332.758" height="144.752"/>
	<rect x="36.648" y="160.928" style="fill:#CA8540;" width="166.379" height="144.752"/>
	<g>
		<path style="fill:#858EA4;" d="M17.019,127.515v170.166c0,4.418,3.582,8,8,8h60.899c4.418,0,8-3.582,8-8V127.515    c0-1.816-0.618-3.578-1.752-4.996L61.716,84.44c-3.203-4.005-9.293-4.005-12.496,0l-30.449,38.078    C17.636,123.937,17.019,125.699,17.019,127.515z"/>
		<path style="fill:#707789;" d="M17.019,127.515v170.166c0,4.418,3.582,8,8,8h30.449l0-224.244c-2.323,0-4.647,1.001-6.248,3.004    l-30.449,38.078C17.636,123.937,17.019,125.699,17.019,127.515z"/>
	</g>
	<g>
		<path style="fill:#858EA4;" d="M312.137,127.515v170.166c0,4.418,3.582,8,8,8h60.899c4.418,0,8-3.582,8-8V127.515    c0-1.816-0.618-3.578-1.752-4.996L356.835,84.44c-3.203-4.005-9.293-4.005-12.496,0l-30.449,38.078    C312.755,123.937,312.137,125.699,312.137,127.515z"/>
		<path style="fill:#707789;" d="M312.137,127.515v170.166c0,4.418,3.582,8,8,8h30.449l0-224.244c-2.323,0-4.647,1.001-6.248,3.004    l-30.449,38.078C312.755,123.937,312.137,125.699,312.137,127.515z"/>
	</g>
	<path style="fill:#387F9E;" d="M391.055,324.618H15c-8.284,0-15-6.716-15-15s6.716-15,15-15h376.055c8.284,0,15,6.716,15,15   S399.339,324.618,391.055,324.618z"/>
	<path style="fill:#29556E;" d="M203.027,324.618H15c-8.284,0-15-6.716-15-15s6.716-15,15-15h188.027V324.618z"/>
	<path style="fill:#29556E;" d="M158.412,222.176v22.256c0,8.284-6.716,15-15,15s-15-6.716-15-15v-22.256c0-8.284,6.716-15,15-15   S158.412,213.892,158.412,222.176z"/>
	<path style="fill:#387F9E;" d="M218.027,222.176v22.256c0,8.284-6.716,15-15,15s-15-6.716-15-15v-22.256c0-8.284,6.716-15,15-15   S218.027,213.892,218.027,222.176z"/>
	<path style="fill:#29556E;" d="M203.027,259.433c-8.284,0-15-6.716-15-15v-22.256c0-8.284,6.716-15,15-15V259.433z"/>
	<path style="fill:#387F9E;" d="M277.643,222.176v22.256c0,8.284-6.716,15-15,15s-15-6.716-15-15v-22.256c0-8.284,6.716-15,15-15   S277.643,213.892,277.643,222.176z"/>
	<g>
		<path style="fill:#387F9E;" d="M87.461,164.181H23.475c-8.284,0-15-6.716-15-15s6.716-15,15-15h63.987c8.284,0,15,6.716,15,15    S95.746,164.181,87.461,164.181z"/>
	</g>
	<g>
		<path style="fill:#387F9E;" d="M382.58,164.181h-63.987c-8.284,0-15-6.716-15-15s6.716-15,15-15h63.987c8.284,0,15,6.716,15,15    S390.864,164.181,382.58,164.181z"/>
	</g>
</g>















</svg>
