<?xml version="1.0" encoding="iso-8859-1"?>
<!-- Generator: Adobe Illustrator 19.0.0, SVG Export Plug-In . SVG Version: 6.00 Build 0)  -->
<svg version="1.1" id="Layer_1" xmlns="http://www.w3.org/2000/svg" xmlns:xlink="http://www.w3.org/1999/xlink" x="0px" y="0px"
	 viewBox="0 0 443.3 443.3" style="enable-background:new 0 0 443.3 443.3;" xml:space="preserve">
<g>
	<path style="fill:#F8A805;" d="M137.7,38.308c-1.793,0.538-3.66,0.812-5.55,0.812c-7.21,0-14.212-3.628-21.649-7.482l-0.091-0.047
		c-7.394-3.821-14.377-7.431-21.561-7.431c-4.662,0-8.863,1.548-12.846,4.733L73,31.294V65.07l10.305-3.099
		c1.789-0.538,3.655-0.812,5.544-0.812c7.211,0,14.225,3.635,21.702,7.51c7.402,3.831,14.395,7.45,21.599,7.45
		c4.649,0,8.848-1.545,12.836-4.723L148,68.995v-33.78L137.7,38.308z"/>
	<polygon style="fill:#3E81C8;" points="73.001,88.137 29.693,146.14 116.294,146.14 	"/>
	<rect x="48" y="146.14" style="fill:#EFEFEF;" width="50" height="60"/>
	<rect x="138" y="189.14" style="fill:#EFEFEF;" width="32" height="40"/>
	<rect x="202" y="189.14" style="fill:#EFEFEF;" width="32" height="40"/>
	<rect x="266" y="189.14" style="fill:#EFEFEF;" width="32" height="40"/>
	<path style="fill:#F8A805;" d="M424.998,38.308c-1.792,0.539-3.658,0.812-5.548,0.812c-7.21,0-14.212-3.628-21.697-7.508
		c-7.403-3.832-14.396-7.452-21.603-7.452c-2.076,0-4.007,0.295-5.902,0.902c-2.397,0.769-4.736,2.06-6.953,3.837L360.3,31.3v33.769
		l10.304-3.098c1.791-0.538,3.657-0.812,5.547-0.812c7.21,0,14.224,3.635,21.701,7.51c7.402,3.831,14.395,7.45,21.599,7.45
		c4.662,0,8.863-1.548,12.846-4.731l3.004-2.401V35.214L424.998,38.308z"/>
	<polygon style="fill:#3E81C8;" points="360.3,88.137 316.993,146.14 403.594,146.14 	"/>
	<rect x="335.299" y="146.14" style="fill:#EFEFEF;" width="50" height="60"/>
	<path style="fill:#F8A805;" d="M218.349,304.14h-0.699c-19.105,0-34.649,15.544-34.649,34.649v80.351h70v-80.35
		C253,319.684,237.456,304.14,218.349,304.14z"/>
	<rect x="298" y="206.14" style="fill:#EFEFEF;" width="130" height="200"/>
	<path style="fill:#EFEFEF;" d="M138,229.14v190h45v-80.35c0-19.105,15.544-34.649,34.649-34.649h0.699
		c19.106,0,34.651,15.544,34.651,34.649v80.351h45v-190L138,229.14L138,229.14z"/>
	<rect x="8" y="206.14" style="fill:#EFEFEF;" width="130" height="200"/>
	<rect x="43.5" y="321.14" style="fill:#3E81C8;" width="43" height="43"/>
	<rect x="338" y="247.14" style="fill:#3E81C8;" width="43" height="43"/>
	<g>
		<path d="M438.3,24.22c-3.03-1.22-6.49-0.48-8.76,1.86c-4.3,4.46-7.65,5.04-10.09,5.04c-5.27,0-11.44-3.2-17.97-6.58
			c-7.95-4.12-16.17-8.38-25.33-8.38c-7.98,0-15.25,3.34-21.61,9.92c-1.44,1.5-2.24,3.49-2.24,5.56v53.84l-41.71,55.87
			c-1.81,2.43-2.1,5.67-0.74,8.38c1.35,2.7,4.12,4.41,7.15,4.41h10.3v44H306v-9c0-4.42-3.58-8-8-8h-32c-4.42,0-8,3.58-8,8v32h-16
			v-32c0-4.42-3.58-8-8-8h-32c-4.42,0-8,3.58-8,8v32h-16v-32c0-4.42-3.58-8-8-8h-32c-4.42,0-8,3.58-8,8v9h-24v-44h10.3
			c0.01,0,0.01,0,0.02,0c4.42,0,8-3.58,8-8c0-1.98-0.72-3.79-1.91-5.18L81,85.48V72.14c3.24-2.59,5.85-2.98,7.85-2.98
			c5.26,0,11.43,3.2,17.97,6.58c7.95,4.12,16.16,8.38,25.33,8.38c7.98,0,15.25-3.34,21.6-9.92c1.44-1.5,2.25-3.49,2.25-5.56v-37
			c0-3.26-1.98-6.2-5.01-7.42c-3.02-1.22-6.48-0.48-8.75,1.86c-4.3,4.46-7.65,5.04-10.09,5.04c-5.27,0-11.44-3.2-17.97-6.58
			c-7.95-4.12-16.17-8.38-25.33-8.38c-7.99,0-15.25,3.34-21.61,9.92C65.8,27.58,65,29.57,65,31.64v53.84l-41.71,55.87
			c-1.82,2.43-2.1,5.67-0.75,8.38c1.36,2.7,4.13,4.41,7.16,4.41H40v44H8c-4.42,0-8,3.58-8,8v200c0,4.42,3.58,8,8,8h122v5
			c0,4.42,3.58,8,8,8h160c4.42,0,8-3.58,8-8v-5h122c4.42,0,8-3.58,8-8v-200c0-4.42-3.58-8-8-8h-34.7v-44h10.3c0.01,0,0.01,0,0.02,0
			c4.42,0,8-3.58,8-8c0-1.98-0.72-3.79-1.91-5.18L368.3,85.48V72.14c3.24-2.59,5.85-2.98,7.85-2.98c5.27,0,11.44,3.2,17.97,6.58
			c7.95,4.12,16.16,8.38,25.33,8.38c7.98,0,15.25-3.34,21.61-9.92c1.43-1.5,2.24-3.49,2.24-5.56v-37
			C443.3,28.38,441.32,25.44,438.3,24.22z M81,35.14c3.24-2.59,5.85-2.98,7.85-2.98c5.26,0,11.43,3.2,17.97,6.58
			c7.95,4.12,16.16,8.38,25.33,8.38c2.7,0,5.32-0.39,7.85-1.15v19.17c-3.25,2.59-5.85,2.98-7.85,2.98c-5.27,0-11.44-3.2-17.97-6.58
			c-7.95-4.12-16.17-8.38-25.33-8.38c-2.7,0-5.32,0.39-7.85,1.15C81,54.31,81,35.14,81,35.14z M73,101.51l27.34,36.63H45.65
			L73,101.51z M90,154.14v44H56v-44H90z M130,398.14H16v-184h114V398.14z M210,197.14h16v24h-16V197.14z M146,197.14h16v24h-16
			V197.14z M245,411.14h-54v-72.35c0-14.69,11.95-26.65,26.65-26.65h0.7c14.691,0,26.65,11.96,26.65,26.65L245,411.14L245,411.14z
			 M290,411.14h-29v-72.35c0-23.52-19.14-42.65-42.65-42.65h-0.7c-23.52,0-42.65,19.13-42.65,42.65v72.35h-29v-174h144V411.14z
			 M290,221.14h-16v-24h16V221.14z M420,214.14v184H306v-184L420,214.14L420,214.14z M343.3,198.14v-44h34v44H343.3z M387.64,138.14
			h-54.69l27.35-36.63L387.64,138.14z M427.3,65.14c-3.24,2.59-5.85,2.98-7.85,2.98c-5.27,0-11.44-3.2-17.97-6.58
			c-7.95-4.12-16.17-8.38-25.33-8.38c-2.7,0-5.32,0.39-7.85,1.15V35.14c1.62-1.3,3.08-2.04,4.39-2.46c1.31-0.42,2.46-0.52,3.46-0.52
			c5.27,0,11.44,3.2,17.97,6.58c7.95,4.12,16.16,8.38,25.33,8.38c2.7,0,5.32-0.39,7.85-1.15V65.14z"/>
		<path d="M86.5,313.14h-43c-4.42,0-8,3.58-8,8v43c0,4.42,3.58,8,8,8h43c4.42,0,8-3.58,8-8v-43
			C94.5,316.72,90.92,313.14,86.5,313.14z M78.5,356.14h-27v-27h27V356.14z"/>
		<path d="M381,239.14h-43c-4.42,0-8,3.58-8,8v43c0,4.42,3.58,8,8,8h43c4.42,0,8-3.58,8-8v-43C389,242.72,385.42,239.14,381,239.14z
			 M373,282.14h-27v-27h27V282.14z"/>
	</g>
</g>
<g>
</g>
<g>
</g>
<g>
</g>
<g>
</g>
<g>
</g>
<g>
</g>
<g>
</g>
<g>
</g>
<g>
</g>
<g>
</g>
<g>
</g>
<g>
</g>
<g>
</g>
<g>
</g>
<g>
</g>
</svg>
