<?xml version="1.0" encoding="iso-8859-1"?>
<!-- Generator: Adobe Illustrator 18.0.0, SVG Export Plug-In . SVG Version: 6.00 Build 0)  -->
<!DOCTYPE svg PUBLIC "-//W3C//DTD SVG 1.1//EN" "http://www.w3.org/Graphics/SVG/1.1/DTD/svg11.dtd">
<svg version="1.1" id="Capa_1" xmlns="http://www.w3.org/2000/svg" xmlns:xlink="http://www.w3.org/1999/xlink" x="0px" y="0px"
	 viewBox="0 0 54 54" style="enable-background:new 0 0 54 54;" xml:space="preserve">
<g>
	<polygon style="fill:#AA5E32;" points="54,52.5 0,52.5 0,21.5 10,21.5 10,30.5 22,30.5 22,21.5 32,21.5 32,30.5 44,30.5 44,21.5 
		54,21.5 	"/>
	<polygon style="fill:#5B311B;" points="40,1.5 40,5.5 32,5.5 32,1.5 22,1.5 22,5.5 14,5.5 14,1.5 4,1.5 4,5.5 4,6.5 4,21.5 
		10,21.5 10,30.5 22,30.5 22,21.5 32,21.5 32,30.5 44,30.5 44,21.5 50,21.5 50,6.5 50,5.5 50,1.5 	"/>
	<rect x="15" y="10.5" style="fill:#AA5E32;" width="6" height="6"/>
	<rect x="33" y="10.5" style="fill:#AA5E32;" width="6" height="6"/>
	<rect x="7" y="36.5" style="fill:#F18D46;" width="6" height="6"/>
	<rect x="41" y="36.5" style="fill:#F18D46;" width="6" height="6"/>
	<path style="fill:#5B311B;" d="M32,52.5H22V38.41c0-1.607,1.303-2.91,2.91-2.91h4.179c1.607,0,2.91,1.303,2.91,2.91V52.5z"/>
</g>
<g>
</g>
<g>
</g>
<g>
</g>
<g>
</g>
<g>
</g>
<g>
</g>
<g>
</g>
<g>
</g>
<g>
</g>
<g>
</g>
<g>
</g>
<g>
</g>
<g>
</g>
<g>
</g>
<g>
</g>
</svg>
