<?xml version="1.0" encoding="iso-8859-1"?>
<!-- Generator: Adobe Illustrator 19.0.0, SVG Export Plug-In . SVG Version: 6.00 Build 0)  -->
<svg version="1.1" id="Capa_1" xmlns="http://www.w3.org/2000/svg" xmlns:xlink="http://www.w3.org/1999/xlink" x="0px" y="0px"
	 viewBox="0 0 480 480" style="enable-background:new 0 0 480 480;" xml:space="preserve">
<g>
	<path style="fill:#A08A8A;" d="M231.111,183.761v-33.39c0-0.818,0.663-1.482,1.481-1.482h14.815c0.818,0,1.482,0.663,1.482,1.482
		v33.39l9.453,22.906h12.769v-71.111H240h-31.111v71.111h12.769L231.111,183.761z"/>
	<polygon style="fill:#695A69;" points="311.111,420 288.889,420 288.889,455.556 288.889,468.889 311.111,468.889 311.111,455.556 
			"/>
	<polygon style="fill:#695A69;" points="191.111,420 168.889,420 168.889,455.556 168.889,468.889 191.111,468.889 191.111,455.556 
			"/>
	<polygon style="fill:#695A69;" points="168.889,220 168.889,228.889 168.889,237.778 222.222,237.778 222.222,228.889 
		212.487,228.889 221.658,206.667 208.889,206.667 169.524,206.667 177.778,220 	"/>
	<polygon style="fill:#695A69;" points="267.513,228.889 267.513,228.889 257.778,228.889 257.778,237.778 311.111,237.778 
		311.111,228.889 311.111,220 302.222,220 310.476,206.667 271.111,206.667 258.342,206.667 	"/>
	<path style="fill:#695A69;" d="M220.741,246.667h-14.815c-0.818,0-1.481,0.663-1.481,1.482v38.518h17.778v-38.518
		C222.222,247.33,221.559,246.667,220.741,246.667z"/>
	<path style="fill:#695A69;" d="M248.889,183.761v-33.39c0-0.818-0.663-1.482-1.482-1.482h-14.815c-0.818,0-1.481,0.663-1.481,1.482
		v33.39L240,162.222L248.889,183.761z"/>
	<path style="fill:#695A69;" d="M195.556,248.148c0-0.818-0.663-1.482-1.481-1.482h-14.815c-0.818,0-1.482,0.663-1.482,1.482v38.518
		h17.778V248.148z"/>
	<path style="fill:#695A69;" d="M300.741,246.667h-14.815c-0.818,0-1.481,0.663-1.481,1.482v38.518h17.778v-38.518
		C302.222,247.33,301.559,246.667,300.741,246.667z"/>
	<path style="fill:#695A69;" d="M275.556,286.667v-38.518c0-0.818-0.663-1.482-1.481-1.482h-14.815
		c-0.818,0-1.482,0.663-1.482,1.482v38.518H275.556z"/>
	<path style="fill:#A08A8A;" d="M408.889,411.111h-17.778V228.889h17.778V220H360h-31.111v8.889v182.222h-17.778V237.778h-53.333
		v10.37c0-0.818,0.663-1.482,1.482-1.482h14.815c0.818,0,1.481,0.663,1.481,1.482v38.518h-17.778v2.051l40,64.615h-8.889v8.889V420
		h22.222h26.667h71.111v35.556h62.222V322.222h-62.222V411.111z M302.222,286.667h-17.778v-38.518c0-0.818,0.663-1.482,1.481-1.482
		h14.815c0.818,0,1.481,0.663,1.481,1.482V286.667z M337.778,411.111V237.778v-8.889h44.445v182.222H337.778z M431.111,354.815
		c0-0.818,0.663-1.482,1.481-1.482h14.815c0.818,0,1.482,0.663,1.482,1.482v38.518h-17.778V354.815z M431.111,428.889h17.778v17.778
		h-17.778V428.889z"/>
	<polygon style="fill:#B2441D;" points="422.222,228.889 408.889,250.427 408.889,322.222 471.111,322.222 480,322.222 	"/>
	<polygon style="fill:#DFD0C6;" points="204.444,362.222 191.111,362.222 191.111,420 191.111,455.556 204.444,455.556 	"/>
	<polygon style="fill:#DFD0C6;" points="275.556,455.556 288.889,455.556 288.889,420 288.889,362.222 275.556,362.222 	"/>
	<polygon style="fill:#DFD0C6;" points="240,260 240,237.778 222.222,237.778 222.222,248.148 222.222,286.667 222.222,288.718 	"/>
	<polygon style="fill:#C8B2A8;" points="240,260 257.778,288.718 257.778,286.667 257.778,248.148 257.778,237.778 240,237.778 	"/>
	<polygon style="fill:#DE582A;" points="240,353.333 240,322.222 240,260 222.222,288.718 182.222,353.333 191.111,353.333 
		204.444,353.333 	"/>
	<polygon style="fill:#DE582A;" points="240,162.222 231.111,183.761 221.658,206.667 212.487,228.889 222.222,228.889 240,228.889 
			"/>
	<polygon style="fill:#DE582A;" points="267.513,228.889 267.513,228.889 258.342,206.667 248.889,183.761 240,162.222 	"/>
	<polygon style="fill:#DE582A;" points="240,11.111 201.482,135.556 208.889,135.556 240,135.556 	"/>
	<polygon style="fill:#DFD0C6;" points="311.111,237.778 311.111,411.111 328.889,411.111 328.889,228.889 311.111,228.889 	"/>
	<path style="fill:#DFD0C6;" d="M382.222,228.889h-44.445v8.889v173.333h44.445V228.889z M351.111,248.148
		c0-0.818,0.663-1.482,1.481-1.482h14.815c0.818,0,1.482,0.663,1.482,1.482v38.518h-17.778V248.148z M368.889,393.333h-17.778
		v-38.518c0-0.818,0.663-1.482,1.481-1.482h14.815c0.818,0,1.482,0.663,1.482,1.482V393.333z M351.111,340v-38.519
		c0-0.818,0.663-1.481,1.481-1.481h14.815c0.818,0,1.482,0.663,1.482,1.481V340H351.111z"/>
	<polygon style="fill:#DE582A;" points="311.111,220 328.889,220 360,220 360,126.667 310.476,206.667 302.222,220 	"/>
	<path style="fill:#695A69;" d="M367.407,353.333h-14.815c-0.818,0-1.481,0.663-1.481,1.482v38.518h17.778v-38.518
		C368.889,353.997,368.226,353.333,367.407,353.333z"/>
	<path style="fill:#695A69;" d="M448.889,354.815c0-0.818-0.663-1.482-1.482-1.482h-14.815c-0.818,0-1.481,0.663-1.481,1.482v38.518
		h17.778V354.815z"/>
	<path style="fill:#695A69;" d="M368.889,301.481c0-0.818-0.663-1.481-1.482-1.481h-14.815c-0.818,0-1.481,0.663-1.481,1.481V340
		h17.778V301.481z"/>
	<path style="fill:#695A69;" d="M368.889,248.148c0-0.818-0.663-1.482-1.482-1.482h-14.815c-0.818,0-1.481,0.663-1.481,1.482v38.518
		h17.778V248.148z"/>
	<path style="fill:#C8B2A8;" d="M408.889,455.556V420h-71.111h-26.667v35.556H408.889z M351.111,428.889h17.778v17.778h-17.778
		V428.889z"/>
	<polygon style="fill:#C8B2A8;" points="391.111,411.111 408.889,411.111 408.889,322.222 408.889,250.427 408.889,228.889 
		391.111,228.889 	"/>
	<path style="fill:#C8B2A8;" d="M275.556,362.222h-71.111v93.333h17.778V440c0-9.819,7.959-17.778,17.778-17.778
		c9.819,0,17.778,7.959,17.778,17.778v15.556h17.778V362.222z"/>
	<path style="fill:#695A69;" d="M257.778,440c0-9.819-7.959-17.778-17.778-17.778c-9.818,0-17.778,7.959-17.778,17.778v15.556
		v13.333h35.555v-13.333V440z"/>
	<polygon style="fill:#A08A8A;" points="204.444,362.222 275.556,362.222 275.556,353.333 240,353.333 204.444,353.333 	"/>
	<rect x="204.444" y="455.556" style="fill:#A08A8A;" width="17.778" height="13.333"/>
	<rect x="257.778" y="455.556" style="fill:#A08A8A;" width="17.778" height="13.333"/>
	<rect x="191.111" y="455.556" style="fill:#C8B2A8;" width="13.333" height="13.333"/>
	<rect x="191.111" y="353.333" style="fill:#C8B2A8;" width="13.333" height="8.889"/>
	<rect x="275.556" y="353.333" style="fill:#C8B2A8;" width="13.333" height="8.889"/>
	<rect x="311.111" y="220" style="fill:#C8B2A8;" width="17.778" height="8.889"/>
	<rect x="275.556" y="455.556" style="fill:#C8B2A8;" width="13.333" height="13.333"/>
	<rect x="351.111" y="428.889" style="fill:#695A69;" width="17.778" height="17.778"/>
	<rect x="431.111" y="428.889" style="fill:#695A69;" width="17.778" height="17.778"/>
	<path style="fill:#A08A8A;" d="M71.111,420h66.667h31.111h22.222v-57.778v-8.889h-8.889l40-64.615v-2.051h-17.778v-38.518
		c0-0.818,0.663-1.482,1.481-1.482h14.815c0.818,0,1.481,0.663,1.481,1.482v-10.37h-53.333v173.333h-17.778V228.889h17.778V220H120
		H88.889v8.889v182.222H71.111v-88.889H8.889v133.333h62.222V420z M177.778,248.148c0-0.818,0.663-1.482,1.482-1.482h14.815
		c0.818,0,1.481,0.663,1.481,1.482v38.518h-17.778V248.148z M97.778,228.889h44.445v182.222H97.778V228.889z M48.889,446.667H31.111
		v-17.778h17.778V446.667z M48.889,393.333H31.111v-38.518c0-0.818,0.663-1.482,1.481-1.482h14.815c0.818,0,1.482,0.663,1.482,1.482
		V393.333z"/>
	<polygon style="fill:#B2441D;" points="71.111,250.427 57.778,228.889 0,322.222 8.889,322.222 71.111,322.222 	"/>
	<path style="fill:#695A69;" d="M47.407,353.333H32.593c-0.818,0-1.481,0.663-1.481,1.482v38.518h17.778v-38.518
		C48.889,353.997,48.226,353.333,47.407,353.333z"/>
	<rect x="31.111" y="428.889" style="fill:#695A69;" width="17.778" height="17.778"/>
	<polygon style="fill:#DFD0C6;" points="71.111,411.111 88.889,411.111 88.889,228.889 71.111,228.889 71.111,250.427 
		71.111,322.222 	"/>
	<path style="fill:#DFD0C6;" d="M142.222,411.111V228.889H97.778v182.222H142.222z M128.889,393.333h-17.778v-38.518
		c0-0.818,0.663-1.482,1.481-1.482h14.815c0.818,0,1.482,0.663,1.482,1.482V393.333z M128.889,340h-17.778v-38.519
		c0-0.818,0.663-1.481,1.481-1.481h14.815c0.818,0,1.482,0.663,1.482,1.481V340z M128.889,286.667h-17.778v-38.518
		c0-0.818,0.663-1.482,1.481-1.482h14.815c0.818,0,1.482,0.663,1.482,1.482V286.667z"/>
	<polygon style="fill:#DE582A;" points="120,220 120,126.667 62.222,220 71.111,220 88.889,220 	"/>
	<path style="fill:#695A69;" d="M127.407,353.333h-14.815c-0.818,0-1.481,0.663-1.481,1.482v38.518h17.778v-38.518
		C128.889,353.997,128.226,353.333,127.407,353.333z"/>
	<path style="fill:#695A69;" d="M127.407,300h-14.815c-0.818,0-1.481,0.663-1.481,1.481V340h17.778v-38.519
		C128.889,300.663,128.226,300,127.407,300z"/>
	<path style="fill:#695A69;" d="M127.407,246.667h-14.815c-0.818,0-1.481,0.663-1.481,1.482v38.518h17.778v-38.518
		C128.889,247.33,128.226,246.667,127.407,246.667z"/>
	<path style="fill:#C8B2A8;" d="M71.111,420v35.556h97.778V420h-31.111H71.111z M128.889,446.667h-17.778v-17.778h17.778V446.667z"
		/>
	<polygon style="fill:#A08A8A;" points="71.111,455.556 71.111,468.889 137.778,468.889 168.889,468.889 168.889,455.556 	"/>
	<rect x="111.111" y="428.889" style="fill:#695A69;" width="17.778" height="17.778"/>
	<polygon style="fill:#B2441D;" points="168.889,220 177.778,220 169.524,206.667 120,126.667 120,220 	"/>
	<polygon style="fill:#B2441D;" points="408.889,220 417.778,220 360,126.667 360,220 	"/>
	<polygon style="fill:#B2441D;" points="240,162.222 240,228.889 257.778,228.889 267.513,228.889 	"/>
	<polygon style="fill:#B2441D;" points="240,260 240,322.222 240,353.333 275.556,353.333 288.889,353.333 297.778,353.333 
		257.778,288.718 	"/>
	<polygon style="fill:#B2441D;" points="271.111,135.556 278.519,135.556 278.519,135.556 240,11.111 240,135.556 	"/>
	<polygon style="fill:#C8B2A8;" points="151.111,228.889 151.111,411.111 168.889,411.111 168.889,237.778 168.889,228.889 	"/>
	<rect x="8.889" y="455.556" style="fill:#695A69;" width="62.222" height="13.333"/>
	<polygon style="fill:#A08A8A;" points="311.111,455.556 311.111,468.889 337.778,468.889 408.889,468.889 408.889,455.556 	"/>
	<rect x="408.889" y="455.556" style="fill:#695A69;" width="62.222" height="13.333"/>
	<rect x="71.111" y="220" style="fill:#C8B2A8;" width="17.778" height="8.889"/>
	<rect x="222.222" y="228.889" style="fill:#C8B2A8;" width="17.778" height="8.889"/>
	<rect x="240" y="228.889" style="fill:#A08A8A;" width="17.778" height="8.889"/>
</g>
<g>
</g>
<g>
</g>
<g>
</g>
<g>
</g>
<g>
</g>
<g>
</g>
<g>
</g>
<g>
</g>
<g>
</g>
<g>
</g>
<g>
</g>
<g>
</g>
<g>
</g>
<g>
</g>
<g>
</g>
</svg>
