<?xml version="1.0" encoding="iso-8859-1"?>
<!-- Generator: Adobe Illustrator 18.0.0, SVG Export Plug-In . SVG Version: 6.00 Build 0)  -->
<!DOCTYPE svg PUBLIC "-//W3C//DTD SVG 1.1//EN" "http://www.w3.org/Graphics/SVG/1.1/DTD/svg11.dtd">
<svg version="1.1" id="Capa_1" xmlns="http://www.w3.org/2000/svg" xmlns:xlink="http://www.w3.org/1999/xlink" x="0px" y="0px"
	 viewBox="0 0 454.929 454.929" style="enable-background:new 0 0 454.929 454.929;" xml:space="preserve">
<g>
	<rect x="141.271" y="113.25" style="fill:#999999;" width="38.3" height="252.26"/>
	<polygon style="fill:#9A87C9;" points="127.248,113.248 160.419,27.85 193.589,113.248 	"/>
	<path style="fill:#666666;" d="M166.583,157.403h-12.328v-29.058c0-3.404,2.76-6.164,6.164-6.164h0c3.404,0,6.164,2.76,6.164,6.164
		V157.403z"/>
	<path style="fill:#666666;" d="M166.583,210.236h-12.328v-29.058c0-3.404,2.76-6.164,6.164-6.164h0c3.404,0,6.164,2.76,6.164,6.164
		V210.236z"/>
	<rect x="141.271" y="113.25" style="fill:#808080;" width="38.3" height="6"/>
	<polygon style="fill:#8172AF;" points="160.419,27.85 150.282,113.243 127.248,113.248 	"/>
	<g>
		<rect x="326.956" y="120.511" style="fill:#999999;" width="38.3" height="252.26"/>
		<polygon style="fill:#9A87C9;" points="312.933,120.507 346.103,35.109 379.274,120.507 		"/>
		<path style="fill:#666666;" d="M352.27,177.41h-12.328v-29.058c0-3.404,2.76-6.164,6.164-6.164l0,0
			c3.404,0,6.164,2.76,6.164,6.164V177.41z"/>
		<rect x="326.956" y="120.51" style="fill:#808080;" width="38.3" height="6"/>
		<polygon style="fill:#8172AF;" points="346.103,35.109 335.966,120.502 312.933,120.507 		"/>
	</g>
	<rect x="94.771" y="158.368" style="fill:#999999;" width="38.3" height="252.27"/>
	<polygon style="fill:#A99AD8;" points="80.751,158.373 113.921,72.975 147.092,158.373 	"/>
	<rect x="268.561" y="85.398" style="fill:#B3B3B3;" width="38.3" height="252.26"/>
	<polygon style="fill:#A798D8;" points="254.537,85.398 287.708,0 320.878,85.398 	"/>
	<path style="fill:#666666;" d="M293.872,129.553h-12.328v-29.058c0-3.404,2.76-6.164,6.164-6.164l0,0
		c3.404,0,6.164,2.76,6.164,6.164V129.553z"/>
	<path style="fill:#666666;" d="M293.872,183.12h-12.328v-29.058c0-3.404,2.76-6.164,6.164-6.164l0,0
		c3.404,0,6.164,2.76,6.164,6.164V183.12z"/>
	<path style="fill:#666666;" d="M293.872,236.687h-12.328v-29.058c0-3.404,2.76-6.164,6.164-6.164l0,0
		c3.404,0,6.164,2.76,6.164,6.164V236.687z"/>
	<path style="fill:#666666;" d="M120.085,215.453h-12.328v-29.058c0-3.404,2.76-6.164,6.164-6.164h0c3.404,0,6.164,2.76,6.164,6.164
		V215.453z"/>
	<rect x="196.481" y="153.528" style="fill:#B3B3B3;" width="61.97" height="286.49"/>
	<polygon style="fill:#9A87C9;" points="173.794,153.532 227.465,88.285 281.135,153.532 	"/>
	<g>
		<path style="fill:#666666;" d="M220.4,203.677h-14v-33c0-3.866,3.134-7,7-7h0c3.866,0,7,3.134,7,7V203.677z"/>
		<path style="fill:#666666;" d="M220.4,263.677h-14v-33c0-3.866,3.134-7,7-7h0c3.866,0,7,3.134,7,7V263.677z"/>
		<path style="fill:#666666;" d="M248.529,203.677h-14v-33c0-3.866,3.134-7,7-7h0c3.866,0,7,3.134,7,7V203.677z"/>
		<path style="fill:#666666;" d="M248.529,263.677h-14v-33c0-3.866,3.134-7,7-7h0c3.866,0,7,3.134,7,7V263.677z"/>
	</g>
	<rect x="68.131" y="304.158" style="fill:#CCCCCC;" width="318.67" height="150.77"/>
	<g>
		<rect x="72.681" y="304.158" style="fill:#CCCCCC;" width="17.9" height="4.04"/>
		<rect x="101.841" y="304.158" style="fill:#CCCCCC;" width="17.91" height="4.04"/>
		<rect x="131.013" y="288.198" style="fill:#CCCCCC;" width="17.904" height="20"/>
		<rect x="160.179" y="288.198" style="fill:#CCCCCC;" width="17.904" height="20"/>
		<rect x="189.346" y="288.198" style="fill:#CCCCCC;" width="17.904" height="20"/>
		<rect x="218.513" y="288.198" style="fill:#CCCCCC;" width="17.904" height="20"/>
		<rect x="247.679" y="288.198" style="fill:#CCCCCC;" width="17.904" height="20"/>
		<rect x="276.846" y="288.198" style="fill:#CCCCCC;" width="17.904" height="20"/>
		<rect x="306.013" y="288.198" style="fill:#CCCCCC;" width="17.904" height="20"/>
		<rect x="335.181" y="304.158" style="fill:#CCCCCC;" width="17.9" height="4.04"/>
		<rect x="364.341" y="304.158" style="fill:#CCCCCC;" width="17.91" height="4.04"/>
	</g>
	<g>
		<rect x="68.131" y="304.158" style="fill:#999999;" width="54.99" height="150.77"/>
		<rect x="331.811" y="304.158" style="fill:#999999;" width="54.99" height="150.77"/>
	</g>
	<rect x="24.601" y="247.008" style="fill:#B3B3B3;" width="90.19" height="207.92"/>
	<g>
		<rect x="11.414" y="196.065" style="fill:#B3B3B3;" width="15.507" height="17.323"/>
		<rect x="36.677" y="196.065" style="fill:#B3B3B3;" width="15.507" height="17.323"/>
		<rect x="61.94" y="196.065" style="fill:#B3B3B3;" width="15.507" height="17.323"/>
		<rect x="87.203" y="196.065" style="fill:#B3B3B3;" width="15.507" height="17.323"/>
		<rect x="112.466" y="196.065" style="fill:#B3B3B3;" width="15.507" height="17.323"/>
	</g>
	<rect x="11.414" y="213.388" style="fill:#B3B3B3;" width="116.559" height="33.621"/>
	<rect x="340.141" y="247.008" style="fill:#B3B3B3;" width="90.19" height="207.92"/>
	<g>
		<rect x="326.956" y="196.065" style="fill:#B3B3B3;" width="15.507" height="17.323"/>
		<rect x="352.219" y="196.065" style="fill:#B3B3B3;" width="15.507" height="17.323"/>
		<rect x="377.482" y="196.065" style="fill:#B3B3B3;" width="15.507" height="17.323"/>
		<rect x="402.745" y="196.065" style="fill:#B3B3B3;" width="15.507" height="17.323"/>
		<rect x="428.008" y="196.065" style="fill:#B3B3B3;" width="15.507" height="17.323"/>
	</g>
	<rect x="326.956" y="213.388" style="fill:#B3B3B3;" width="116.559" height="33.621"/>
	<rect x="94.771" y="158.368" style="fill:#808080;" width="38.3" height="6"/>
	<rect x="268.561" y="85.398" style="fill:#808080;" width="38.3" height="6"/>
	<rect x="196.481" y="153.528" style="fill:#999999;" width="61.97" height="6"/>
	<rect x="24.601" y="247.008" style="fill:#999999;" width="90.19" height="6"/>
	<rect x="340.141" y="247.008" style="fill:#999999;" width="90.19" height="6"/>
	<polygon style="fill:#8172AF;" points="113.921,72.975 103.784,158.368 80.751,158.373 	"/>
	<polygon style="fill:#8172AF;" points="287.708,0 277.571,85.393 254.537,85.398 	"/>
	<polygon style="fill:#8172AF;" points="227.465,88.285 205.907,153.528 173.794,153.532 	"/>
	<path style="fill:#B3B3B3;" d="M270.851,388.808v66.12h-86.77v-66.12c0-23.92,19.46-43.38,43.38-43.38
		C251.391,345.428,270.851,364.888,270.851,388.808z"/>
	<path style="fill:#666666;" d="M227.465,353.425L227.465,353.425c-19.544,0-35.387,15.844-35.387,35.387v66.117h70.775v-66.117
		C262.852,369.268,247.009,353.425,227.465,353.425z"/>
	<g>
		<path style="fill:#666666;" d="M60.964,312.953H48.636v-29.058c0-3.404,2.76-6.164,6.164-6.164h0c3.404,0,6.164,2.76,6.164,6.164
			V312.953z"/>
		<path style="fill:#666666;" d="M406.296,312.953h-12.328v-29.058c0-3.404,2.76-6.164,6.164-6.164h0
			c3.404,0,6.164,2.76,6.164,6.164V312.953z"/>
	</g>
	<g>
		<path style="fill:#666666;" d="M155.839,339.392h-12.328v-12.788c0-3.404,2.76-6.164,6.164-6.164h0
			c3.404,0,6.164,2.76,6.164,6.164V339.392z"/>
		<path style="fill:#666666;" d="M194.734,339.392h-12.328v-12.788c0-3.404,2.76-6.164,6.164-6.164h0
			c3.404,0,6.164,2.76,6.164,6.164V339.392z"/>
		<path style="fill:#666666;" d="M233.63,339.392h-12.328v-12.788c0-3.404,2.76-6.164,6.164-6.164h0c3.404,0,6.164,2.76,6.164,6.164
			V339.392z"/>
		<path style="fill:#666666;" d="M272.526,339.392h-12.328v-12.788c0-3.404,2.76-6.164,6.164-6.164h0
			c3.404,0,6.164,2.76,6.164,6.164V339.392z"/>
		<path style="fill:#666666;" d="M311.421,339.392h-12.328v-12.788c0-3.404,2.76-6.164,6.164-6.164l0,0
			c3.404,0,6.164,2.76,6.164,6.164V339.392z"/>
	</g>
	<rect x="224.965" y="50.198" style="fill:#9A87C9;" width="5" height="62.531"/>
	<circle style="fill:#F9E575;" cx="227.465" cy="50.198" r="8.149"/>
</g>
<g>
</g>
<g>
</g>
<g>
</g>
<g>
</g>
<g>
</g>
<g>
</g>
<g>
</g>
<g>
</g>
<g>
</g>
<g>
</g>
<g>
</g>
<g>
</g>
<g>
</g>
<g>
</g>
<g>
</g>
</svg>
