<?xml version="1.0" encoding="iso-8859-1"?>
<!-- Generator: Adobe Illustrator 19.0.0, SVG Export Plug-In . SVG Version: 6.00 Build 0)  -->
<svg version="1.1" id="Layer_1" xmlns="http://www.w3.org/2000/svg" xmlns:xlink="http://www.w3.org/1999/xlink" x="0px" y="0px"
	 viewBox="0 0 512 512" style="enable-background:new 0 0 512 512;" xml:space="preserve">
<path style="fill:#967A56;" d="M489.74,211.478c6.147,0,11.13,4.983,11.13,11.13v31.801V512H367.305H233.74h-89.043H11.131V254.409
	V222.21c0-5.928,4.983-10.733,11.13-10.733h22.261c6.147,0,11.13,4.805,11.13,10.733v21.466c0,5.928,4.983,10.733,11.13,10.733
	h22.261c6.147,0,11.13-4.805,11.13-10.733V222.21c0-5.928,4.983-10.733,11.13-10.733h33.391v-33.391L256.001,55.652l111.304,122.435
	v33.391h11.13h11.13h11.13c6.147,0,11.13,4.805,11.13,10.733v21.466c0,5.928,4.983,10.733,11.13,10.733h22.261
	c6.147,0,11.13-4.805,11.13-10.733v-21.466c0-5.928,4.983-10.733,11.13-10.733H489.74z"/>
<path style="fill:#4C443B;" d="M244.87,0h22.261v89.043H244.87V0z M77.914,300.522c-12.295,0-22.261,9.966-22.261,22.261v33.391
	h44.522v-33.391C100.174,310.488,90.208,300.522,77.914,300.522z M434.087,300.522c-12.295,0-22.261,9.966-22.261,22.261v33.391
	h44.522v-33.391C456.348,310.488,446.382,300.522,434.087,300.522z"/>
<path style="fill:#B79969;" d="M511.976,501.61c-0.383,5.916-5.56,10.39-11.488,10.39H367.305H233.74h-89.043H11.512
	c-5.928,0-11.105-4.473-11.488-10.39c-0.419-6.482,4.715-11.871,11.107-11.871h133.565V178.087L247.765,64.711
	c4.417-4.857,12.055-4.857,16.472,0l103.068,113.376v311.652H500.87C507.262,489.739,512.396,495.127,511.976,501.61z"/>
<path style="fill:#665A4B;" d="M322.783,467.478v22.261H189.218v-22.261c0-36.883,29.9-66.783,66.783-66.783l0,0
	C292.883,400.696,322.783,430.595,322.783,467.478z M278.261,322.783c0-12.295-9.966-22.261-22.261-22.261
	c-12.295,0-22.261,9.966-22.261,22.261v33.391h44.522V322.783z M278.261,244.87c0-12.295-9.966-22.261-22.261-22.261
	c-12.295,0-22.261,9.966-22.261,22.261V256h44.522V244.87z"/>
<path style="fill:#80BDA2;" d="M367.453,178.087H144.548c-4.558,0-7.184-5.18-4.488-8.856L252.106,59.468
	c2.164-2.119,5.625-2.119,7.789,0L371.941,169.23C374.636,172.907,372.011,178.087,367.453,178.087z"/>
<path style="fill:#DB5E49;" d="M333.914,22.261H244.87V0h89.043l-11.13,11.13L333.914,22.261z"/>
<g>
</g>
<g>
</g>
<g>
</g>
<g>
</g>
<g>
</g>
<g>
</g>
<g>
</g>
<g>
</g>
<g>
</g>
<g>
</g>
<g>
</g>
<g>
</g>
<g>
</g>
<g>
</g>
<g>
</g>
</svg>
