<?xml version="1.0" encoding="iso-8859-1"?>
<!-- Generator: Adobe Illustrator 19.0.0, SVG Export Plug-In . SVG Version: 6.00 Build 0)  -->
<svg version="1.1" id="Layer_1" xmlns="http://www.w3.org/2000/svg" xmlns:xlink="http://www.w3.org/1999/xlink" x="0px" y="0px"
	 viewBox="0 0 512 512" style="enable-background:new 0 0 512 512;" xml:space="preserve">
<polygon style="fill:#6A563D;" points="512,275.342 512,511.48 0.021,511.48 0.021,275.342 32.411,275.342 32.411,234.593 
	0,234.593 86.744,45.453 173.488,234.593 140.032,234.593 140.032,275.342 201.678,275.342 201.678,189.664 169.267,189.664 
	256.01,0.525 342.754,189.664 309.298,189.664 309.298,275.342 369.9,275.342 369.9,234.593 337.488,234.593 424.232,45.453 
	510.976,234.593 477.52,234.593 477.52,275.342 "/>
<polygon style="fill:#FF9811;" points="512,275.342 512,511.48 0.021,511.48 0.021,275.342 32.411,275.342 32.411,234.593 
	0,234.593 86.744,45.453 173.488,234.593 140.032,234.593 140.032,275.342 201.678,275.342 201.678,189.664 169.267,189.664 
	256.01,0.525 342.754,189.664 309.298,189.664 309.298,275.342 369.9,275.342 369.9,234.593 337.488,234.593 424.232,45.453 
	510.976,234.593 477.52,234.593 477.52,275.342 "/>
<g>
	<rect x="63.235" y="247.652" style="fill:#6A563D;" width="47.018" height="80.454"/>
	<rect x="124.359" y="328.628" style="fill:#6A563D;" width="47.018" height="80.454"/>
</g>
<path style="fill:#FF5023;" d="M86.744,83.047L24.429,218.92h124.63L86.744,83.047z"/>
<rect x="232.501" y="205.857" style="fill:#6A563D;" width="47.019" height="80.454"/>
<path style="fill:#FFDA44;" d="M316.873,422.667v88.813H195.148v-88.813c0-33.561,27.302-60.863,60.863-60.863
	S316.873,389.106,316.873,422.667z"/>
<g>
	<rect x="338.554" y="328.628" style="fill:#6A563D;" width="47.018" height="80.454"/>
	<rect x="400.723" y="247.652" style="fill:#6A563D;" width="47.018" height="80.454"/>
</g>
<g>
	<rect x="63.235" y="247.652" style="fill:#FFDA44;" width="47.018" height="80.454"/>
	<rect x="124.359" y="328.628" style="fill:#FFDA44;" width="47.018" height="80.454"/>
	<rect x="232.501" y="205.857" style="fill:#FFDA44;" width="47.019" height="80.454"/>
	<rect x="338.554" y="328.628" style="fill:#FFDA44;" width="47.018" height="80.454"/>
	<rect x="400.723" y="247.652" style="fill:#FFDA44;" width="47.018" height="80.454"/>
	<path style="fill:#FFDA44;" d="M63.235,247.654v80.454h47.018v-80.454H63.235z M94.58,312.435H78.907v-49.108H94.58V312.435z"/>
	<path style="fill:#FFDA44;" d="M124.359,328.63v80.454h47.018V328.63H124.359z M155.704,393.411h-15.673v-49.108h15.673V393.411z"
		/>
	<path style="fill:#FFDA44;" d="M338.554,328.63v80.454h47.018V328.63H338.554z M369.9,393.411h-15.673v-49.108H369.9V393.411z"/>
	<path style="fill:#FFDA44;" d="M232.501,205.859v80.454h47.018v-80.454H232.501z M263.847,270.641h-15.673v-49.108h15.673V270.641z
		"/>
	<path style="fill:#FFDA44;" d="M400.723,247.654v80.454h47.018v-80.454H400.723z M432.069,312.435h-15.673v-49.108h15.673V312.435z
		"/>
</g>
<g>
	<path style="fill:#FF5023;" d="M424.232,83.047L361.921,218.92h124.622L424.232,83.047z"/>
	<polygon style="fill:#FF5023;" points="337.491,234.593 388.439,123.5 337.488,234.593 	"/>
	<polygon style="fill:#FF5023;" points="510.973,234.593 510.976,234.593 459.584,122.536 	"/>
	<path style="fill:#FF5023;" d="M256.01,38.118l-62.315,135.873h124.63L256.01,38.118z"/>
</g>
<path d="M369.9,234.593v40.749h-60.602v-72.095h-15.673v87.768h91.947v-56.422h125.4L424.232,45.449l-86.741,189.144H369.9z
	 M459.71,160.408h-22.94v15.673h30.127l5.271,11.493h-56.296v15.673h63.482l7.188,15.673H361.921l62.311-135.873L459.71,160.408z"/>
<path d="M201.678,275.342h-61.646v-27.166h-15.673v42.839h92.992V189.664h125.4L256.01,0.52L169.27,189.664h32.408V275.342z
	 M200.887,158.319h63.482v-15.673h-56.295l5.271-11.493h30.127v-15.673h-22.94l35.478-77.361l62.311,135.873H193.699
	L200.887,158.319z"/>
<polygon points="477.52,275.342 477.52,248.176 461.847,248.176 461.847,291.015 496.327,291.015 496.327,410.651 454.533,410.651 
	454.533,426.324 496.327,426.324 496.327,436.773 431.546,436.773 431.546,452.445 496.327,452.445 496.327,462.894 
	452.443,462.894 452.443,478.567 496.327,478.567 496.327,495.807 330.195,495.807 330.195,511.48 512,511.48 512,275.342 "/>
<path d="M256.01,361.804c-33.56,0-60.863,27.303-60.863,60.863v87.245h42.055V494.24H210.82v-71.573
	c0-24.918,20.272-45.19,45.19-45.19s45.19,20.272,45.19,45.19v88.813h15.673v-88.813C316.873,389.107,289.57,361.804,256.01,361.804
	z"/>
<path d="M15.694,478.567h43.884v-15.673H15.694v-10.449h64.781v-15.673H15.694v-10.449h41.794v-15.673H15.694V291.015h32.391
	v-56.422h125.4L86.744,45.449L0.003,234.593h32.408v40.749H0.021V511.48h181.805v-15.673H15.694
	C15.694,495.807,15.694,478.567,15.694,478.567z M86.744,83.047l35.478,77.361h-22.94v15.673h30.127l5.27,11.493H78.385v15.673
	h63.482l7.188,15.673H24.433L86.744,83.047z"/>
<path d="M110.253,247.654H63.235v80.454h47.018V247.654z M94.58,312.435H78.907v-49.108H94.58V312.435z"/>
<path d="M124.359,409.084h47.018V328.63h-47.018C124.359,328.63,124.359,409.084,124.359,409.084z M140.032,344.303h15.673v49.108
	h-15.673V344.303z"/>
<path d="M385.573,409.084V328.63h-47.018v80.454H385.573z M354.227,344.303H369.9v49.108h-15.673V344.303z"/>
<path d="M279.52,286.313v-80.454h-47.018v80.454H279.52z M248.174,221.532h15.673v49.108h-15.673V221.532z"/>
<path d="M447.741,247.654h-47.018v80.454h47.018V247.654z M432.069,312.435h-15.673v-49.108h15.673V312.435z"/>
<rect x="253.921" y="115.477" width="26.121" height="15.673"/>
<rect x="400.201" y="160.406" width="26.121" height="15.673"/>
<rect x="62.712" y="160.406" width="26.121" height="15.673"/>
<rect x="417.963" y="410.649" width="26.121" height="15.673"/>
<rect x="67.936" y="410.649" width="26.121" height="15.673"/>
<g>
</g>
<g>
</g>
<g>
</g>
<g>
</g>
<g>
</g>
<g>
</g>
<g>
</g>
<g>
</g>
<g>
</g>
<g>
</g>
<g>
</g>
<g>
</g>
<g>
</g>
<g>
</g>
<g>
</g>
</svg>
