<?xml version="1.0" encoding="iso-8859-1"?>
<!-- Generator: Adobe Illustrator 16.0.0, SVG Export Plug-In . SVG Version: 6.00 Build 0)  -->
<!DOCTYPE svg PUBLIC "-//W3C//DTD SVG 1.1//EN" "http://www.w3.org/Graphics/SVG/1.1/DTD/svg11.dtd">
<svg xmlns="http://www.w3.org/2000/svg" xmlns:xlink="http://www.w3.org/1999/xlink" version="1.1" id="Layer_1" x="0px" y="0px" width="512" height="512" viewBox="0 0 339.987 339.987" style="enable-background:new 0 0 339.987 339.987;" xml:space="preserve">
<g>
	<path style="fill:#9B4C00;" d="M189.994,19.986h-5V15c0-8.283-6.716-15-15-15s-15,6.717-15,15v4.986h-5c-8.284,0-15,6.716-15,15   s6.716,15,15,15h5v35c0,8.284,6.716,15,15,15s15-6.716,15-15v-35h5c8.284,0,15-6.716,15-15S198.278,19.986,189.994,19.986z"/>
	<path style="fill:#6D3802;" d="M189.994,19.986h-5V15c0-8.283-6.716-15-15-15v99.986c8.284,0,15-6.716,15-15v-35h5   c8.284,0,15-6.716,15-15S198.278,19.986,189.994,19.986z"/>
	<path style="fill:#FF8600;" d="M259.994,159.987h-180c-8.284,0-15,6.716-15,15v150c0,8.284,6.716,15,15,15h180   c8.284,0,15-6.716,15-15v-150C274.994,166.703,268.278,159.987,259.994,159.987z"/>
	<path style="fill:#FFB65B;" d="M270.6,164.381l-90-90.001c-2.813-2.813-6.628-4.394-10.606-4.394s-7.795,1.581-10.606,4.394   l-90,90.001c-4.29,4.29-5.573,10.742-3.253,16.347c2.323,5.604,7.792,9.259,13.859,9.259h180c6.067,0,11.536-3.655,13.857-9.259   C276.173,175.123,274.89,168.671,270.6,164.381z"/>
	<path style="fill:#E07200;" d="M259.994,159.987h-90v180h90c8.284,0,15-6.716,15-15v-150   C274.994,166.703,268.278,159.987,259.994,159.987z"/>
	<path style="fill:#FFA828;" d="M270.6,164.381l-90-90.001c-2.813-2.813-6.628-4.394-10.606-4.394v120.001h90   c6.067,0,11.536-3.655,13.857-9.259C276.173,175.123,274.89,168.671,270.6,164.381z"/>
	<path style="fill:#9B4C00;" d="M69.994,49.987h-5v-4.986c0-8.284-6.716-15-15-15s-15,6.716-15,15v4.986h-5c-8.284,0-15,6.716-15,15   s6.716,15,15,15h5v35c0,8.284,6.716,15,15,15s15-6.716,15-15v-35h5c8.284,0,15-6.716,15-15S78.278,49.987,69.994,49.987z"/>
	<path style="fill:#9B4C00;" d="M309.994,49.987h-5v-4.986c0-8.284-6.716-15-15-15s-15,6.716-15,15v4.986h-5   c-8.284,0-15,6.716-15,15s6.716,15,15,15h5v35c0,8.284,6.716,15,15,15s15-6.716,15-15v-35h5c8.284,0,15-6.716,15-15   S318.278,49.987,309.994,49.987z"/>
	<path style="fill:#6D3802;" d="M69.994,49.987h-5v-4.986c0-8.284-6.716-15-15-15v99.986c8.284,0,15-6.716,15-15v-35h5   c8.284,0,15-6.716,15-15S78.278,49.987,69.994,49.987z"/>
	<path style="fill:#6D3802;" d="M309.994,49.987h-5v-4.986c0-8.284-6.716-15-15-15v99.986c8.284,0,15-6.716,15-15v-35h5   c8.284,0,15-6.716,15-15S318.278,49.987,309.994,49.987z"/>
	<path style="fill:#FFB65B;" d="M79.994,99.987h-60c-8.284,0-15,6.716-15,15v60c0,8.284,6.716,15,15,15h60c8.284,0,15-6.716,15-15   v-60C94.994,106.703,88.278,99.987,79.994,99.987z"/>
	<path style="fill:#FFB65B;" d="M319.994,99.987h-60c-8.284,0-15,6.716-15,15v60c0,8.284,6.716,15,15,15h60c8.284,0,15-6.716,15-15   v-60C334.994,106.703,328.278,99.987,319.994,99.987z"/>
	<path style="fill:#FFA828;" d="M79.994,99.987h-30v90h30c8.284,0,15-6.716,15-15v-60C94.994,106.703,88.278,99.987,79.994,99.987z"/>
	<path style="fill:#FFA828;" d="M319.994,99.987h-30v90h30c8.284,0,15-6.716,15-15v-60   C334.994,106.703,328.278,99.987,319.994,99.987z"/>
	<path style="fill:#FF8600;" d="M79.994,159.987h-60c-8.284,0-15,6.716-15,15v150c0,8.284,6.716,15,15,15h60c8.284,0,15-6.716,15-15   v-150C94.994,166.703,88.278,159.987,79.994,159.987z"/>
	<path style="fill:#E07200;" d="M79.994,159.987h-30v180h30c8.284,0,15-6.716,15-15v-150   C94.994,166.703,88.278,159.987,79.994,159.987z"/>
	<path style="fill:#FF8600;" d="M319.994,159.987h-60c-8.284,0-15,6.716-15,15v150c0,8.284,6.716,15,15,15h60   c8.284,0,15-6.716,15-15v-150C334.994,166.703,328.278,159.987,319.994,159.987z"/>
	<path style="fill:#E07200;" d="M319.994,159.987h-30v180h30c8.284,0,15-6.716,15-15v-150   C334.994,166.703,328.278,159.987,319.994,159.987z"/>
	<g>
		<rect x="139.994" y="254.987" style="fill:#9B4C00;" width="60" height="85"/>
	</g>
	<rect x="169.994" y="254.987" style="fill:#6D3802;" width="30" height="85"/>
</g>















</svg>
