<?xml version="1.0" encoding="iso-8859-1"?>
<!-- Generator: Adobe Illustrator 19.0.0, SVG Export Plug-In . SVG Version: 6.00 Build 0)  -->
<svg version="1.1" id="Layer_1" xmlns="http://www.w3.org/2000/svg" xmlns:xlink="http://www.w3.org/1999/xlink" x="0px" y="0px"
	 viewBox="0 0 512 512" style="enable-background:new 0 0 512 512;" xml:space="preserve">
<path style="fill:#C9D2D9;" d="M89.043,489.739H16.696C7.479,489.739,0,482.261,0,473.043v-267.13
	c0-9.217,7.479-16.696,16.696-16.696h72.348c9.217,0,16.696,7.479,16.696,16.696v267.13
	C105.739,482.261,98.261,489.739,89.043,489.739z"/>
<path style="fill:#B7C4CC;" d="M495.304,489.739h-72.348c-9.217,0-16.696-7.479-16.696-16.696v-267.13
	c0-9.217,7.479-16.696,16.696-16.696h72.348c9.217,0,16.696,7.479,16.696,16.696v267.13
	C512,482.261,504.521,489.739,495.304,489.739z"/>
<path style="fill:#EDF0F2;" d="M439.652,489.739H72.348V38.957c0-9.22,7.475-16.696,16.696-16.696h66.783
	c9.22,0,16.696,7.475,16.696,16.696v50.087h33.391V38.957c0-9.22,7.475-16.696,16.696-16.696h66.783
	c9.22,0,16.696,7.475,16.696,16.696v50.087h33.391V38.957c0-9.22,7.475-16.696,16.696-16.696h66.783
	c9.22,0,16.696,7.475,16.696,16.696V489.739z"/>
<path style="fill:#DAE1E6;" d="M422.957,22.261h-66.783c-9.22,0-16.696,7.475-16.696,16.696v50.087h-33.391V38.957
	c0-9.22-7.475-16.696-16.696-16.696H256v467.478h183.652V38.957C439.652,29.736,432.177,22.261,422.957,22.261z"/>
<path style="fill:#A6673A;" d="M256,289.391c-46.032,0-83.478,37.446-83.478,83.478v116.87h166.957V372.87
	C339.478,326.837,302.032,289.391,256,289.391z"/>
<path style="fill:#99522E;" d="M339.478,489.739V372.87c0-46.032-37.446-83.478-83.478-83.478v200.348H339.478z"/>
<path style="fill:#736056;" d="M356.174,256h-66.783c-9.217,0-16.696-7.479-16.696-16.696v-33.391
	c0-27.619,22.468-50.087,50.087-50.087s50.087,22.468,50.087,50.087v33.391C372.87,248.521,365.391,256,356.174,256z"/>
<path style="fill:#665247;" d="M356.174,256c9.217,0,16.696-7.479,16.696-16.696v-33.391c0-27.619-22.468-50.087-50.087-50.087V256
	H356.174z"/>
<path style="fill:#736056;" d="M222.609,256h-66.783c-9.217,0-16.696-7.479-16.696-16.696v-33.391
	c0-27.619,22.468-50.087,50.087-50.087s50.087,22.468,50.087,50.087v33.391C239.304,248.521,231.826,256,222.609,256z"/>
<path style="fill:#665247;" d="M222.609,256c9.217,0,16.696-7.479,16.696-16.696v-33.391c0-27.619-22.468-50.087-50.087-50.087V256
	H222.609z"/>
<g>
</g>
<g>
</g>
<g>
</g>
<g>
</g>
<g>
</g>
<g>
</g>
<g>
</g>
<g>
</g>
<g>
</g>
<g>
</g>
<g>
</g>
<g>
</g>
<g>
</g>
<g>
</g>
<g>
</g>
</svg>
