<?xml version="1.0" encoding="iso-8859-1"?>
<!-- Generator: Adobe Illustrator 19.0.0, SVG Export Plug-In . SVG Version: 6.00 Build 0)  -->
<svg version="1.1" id="Layer_1" xmlns="http://www.w3.org/2000/svg" xmlns:xlink="http://www.w3.org/1999/xlink" x="0px" y="0px"
	 viewBox="0 0 512.006 512.006" style="enable-background:new 0 0 512.006 512.006;" xml:space="preserve">
<g>
	<path style="fill:#B2EBF2;" d="M481.558,219.764c-10.282,31.331-29.746,60.297-58.4,82.723
		c-14.18,11.096-29.806,19.55-46.186,25.519c-7.908,2.884-17.03-0.061-21.084-7.432c-2.685-4.885-4.218-10.481-4.218-16.458
		c0-3.993,0.676-7.822,1.914-11.391l-53.991,0.017c0.398,4.981-0.286,10.126-2.191,15.098c-2.841,7.415-7.952,13.253-14.241,17.064
		c-9.381,5.682-21.127,5.327-31.296,1.221c-14.492-5.838-28.316-13.712-40.998-23.639c-32.561-25.475-53.255-59.413-62.099-95.647
		c-3.118-12.777-22.244-10.247-22.201,2.902c0.191,55.723,24.678,111.36,73.585,149.673c10.984,8.61,22.807,15.67,35.099,21.499
		c-13.522-1.403-27-4.149-40.244-8.324c-14.656-4.617-29.009-10.975-42.791-19.187c-76.391-45.493-112.131-133.145-95.283-215.6
		c1.958-9.563-10.793-14.778-15.834-6.419C18.3,169.177,5.177,213.449,5.177,260.805c0,138.732,112.469,251.201,251.201,251.201
		c76.547,0,139.408-58.417,146.537-133.093c10.802-5.448,21.214-11.858,30.967-19.498c44.367-34.77,68.639-83.78,72.892-134.185
		C508.073,209.751,486.4,205.013,481.558,219.764z"/>
	<path style="fill:#B2EBF2;" d="M392.806,281.274c32.769-64.879,50.838-134.081,39.776-201.1
		c-17.645-106.899-170.202-106.899-187.847,0c-11.062,67.019,7.008,136.22,39.776,201.1
		C306.913,325.607,370.415,325.607,392.806,281.274z"/>
</g>
<path style="fill:#455A64;" d="M394.963,178.507c0,11.962-7.753,21.655-17.324,21.655s-17.324-9.693-17.324-21.655
	s7.753-21.655,17.324-21.655S394.963,166.544,394.963,178.507z M299.68,156.851c-9.572,0-17.324,9.693-17.324,21.655
	s7.753,21.655,17.324,21.655s17.324-9.693,17.324-21.655S309.251,156.851,299.68,156.851z M338.659,226.148
	c-11.962,0-21.655,32.838-21.655,51.973c0,19.135,9.693,17.324,21.655,17.324s21.655,1.81,21.655-17.324
	C360.315,258.986,350.622,226.148,338.659,226.148z"/>
<g>
</g>
<g>
</g>
<g>
</g>
<g>
</g>
<g>
</g>
<g>
</g>
<g>
</g>
<g>
</g>
<g>
</g>
<g>
</g>
<g>
</g>
<g>
</g>
<g>
</g>
<g>
</g>
<g>
</g>
</svg>
