<?xml version="1.0" encoding="iso-8859-1"?>
<!-- Generator: Adobe Illustrator 19.0.0, SVG Export Plug-In . SVG Version: 6.00 Build 0)  -->
<svg version="1.1" id="Layer_1" xmlns="http://www.w3.org/2000/svg" xmlns:xlink="http://www.w3.org/1999/xlink" x="0px" y="0px"
	 viewBox="0 0 512 512" style="enable-background:new 0 0 512 512;" xml:space="preserve">
<path style="fill:#F1ECDE;" d="M471.149,68.085c-4.494,0-8.775,0.909-12.671,2.549l-109.882,46.264v-16.132
	c0-51.139-41.457-92.596-92.596-92.596s-92.596,41.457-92.596,92.596v16.132L53.523,70.634c-3.897-1.641-8.178-2.549-12.671-2.549
	c-18.05,0-32.681,14.631-32.681,32.681h32.681V460.8c0,23.764,19.265,43.03,43.03,43.03s43.03-19.265,43.03-43.03
	c0,23.764,19.265,43.03,43.03,43.03s43.03-19.265,43.03-43.03c0,23.764,19.265,43.03,43.03,43.03s43.03-19.265,43.03-43.03
	c0,23.764,19.265,43.03,43.03,43.03s43.03-19.265,43.03-43.03c0,23.764,19.265,43.03,43.03,43.03s43.03-19.265,43.03-43.03V100.766
	h32.681C503.83,82.716,489.199,68.085,471.149,68.085z"/>
<g>
	<path style="fill:#440852;" d="M239.66,111.66V89.872c0-4.512-3.658-8.17-8.17-8.17c-4.512,0-8.17,3.658-8.17,8.17v21.787
		c0,4.512,3.658,8.17,8.17,8.17C236.001,119.83,239.66,116.172,239.66,111.66z"/>
	<path style="fill:#440852;" d="M288.681,111.66V89.872c0-4.512-3.658-8.17-8.17-8.17c-4.512,0-8.17,3.658-8.17,8.17v21.787
		c0,4.512,3.658,8.17,8.17,8.17C285.023,119.83,288.681,116.172,288.681,111.66z"/>
	<path style="fill:#440852;" d="M471.149,59.915c-5.486,0-10.815,1.073-15.841,3.189l-98.541,41.491v-3.828
		C356.766,45.203,311.563,0,256,0S155.234,45.203,155.234,100.766v3.828L56.693,63.103c-5.026-2.116-10.355-3.189-15.841-3.189
		C18.325,59.915,0,78.24,0,100.766c0,4.512,3.658,8.17,8.17,8.17h24.511v155.506c0,4.512,3.658,8.17,8.17,8.17s8.17-3.658,8.17-8.17
		V100.766c0-4.512-3.658-8.17-8.17-8.17H17.74c3.372-9.51,12.459-16.34,23.111-16.34c3.296,0,6.493,0.642,9.501,1.907
		l109.882,46.265c2.521,1.063,5.409,0.791,7.69-0.723c2.28-1.514,3.652-4.069,3.652-6.806v-16.132
		c0-46.552,37.874-84.426,84.426-84.426s84.426,37.874,84.426,84.426v16.132c0,2.738,1.37,5.292,3.652,6.806
		c2.281,1.514,5.168,1.785,7.69,0.723L461.65,78.164c3.007-1.267,6.203-1.909,9.499-1.909c10.652,0,19.739,6.83,23.111,16.34
		h-23.111c-4.512,0-8.17,3.658-8.17,8.17V460.8c0,19.222-15.638,34.86-34.86,34.86s-34.86-15.638-34.86-34.86
		c0-4.512-3.658-8.17-8.17-8.17c-4.512,0-8.17,3.658-8.17,8.17c0,19.222-15.638,34.86-34.86,34.86s-34.86-15.638-34.86-34.86
		c0-4.512-3.658-8.17-8.17-8.17c-4.512,0-8.17,3.658-8.17,8.17c0,19.222-15.638,34.86-34.86,34.86s-34.86-15.638-34.86-34.86
		c0-4.512-3.658-8.17-8.17-8.17c-4.512,0-8.17,3.658-8.17,8.17c0,19.222-15.638,34.86-34.86,34.86s-34.86-15.638-34.86-34.86
		c0-4.512-3.658-8.17-8.17-8.17s-8.17,3.658-8.17,8.17c0,19.222-15.638,34.86-34.86,34.86s-34.86-15.638-34.86-34.86V297.123
		c0-4.512-3.658-8.17-8.17-8.17s-8.17,3.658-8.17,8.17V460.8c0,28.232,22.968,51.2,51.2,51.2c18.023,0,33.904-9.363,43.03-23.479
		C136.036,502.637,151.917,512,169.94,512s33.904-9.363,43.03-23.479C222.096,502.637,237.977,512,256,512
		s33.904-9.363,43.03-23.479C308.155,502.637,324.036,512,342.06,512s33.904-9.363,43.03-23.479
		c9.126,14.116,25.006,23.479,43.03,23.479c28.232,0,51.2-22.968,51.2-51.2V108.936h24.511c4.512,0,8.17-3.658,8.17-8.17
		C512,78.24,493.675,59.915,471.149,59.915z"/>
	<circle style="fill:#440852;" cx="389.447" cy="379.098" r="8.17"/>
	<circle style="fill:#440852;" cx="422.128" cy="411.779" r="8.17"/>
</g>
<g>
</g>
<g>
</g>
<g>
</g>
<g>
</g>
<g>
</g>
<g>
</g>
<g>
</g>
<g>
</g>
<g>
</g>
<g>
</g>
<g>
</g>
<g>
</g>
<g>
</g>
<g>
</g>
<g>
</g>
</svg>
