<?xml version="1.0" encoding="iso-8859-1"?>
<!-- Generator: Adobe Illustrator 19.0.0, SVG Export Plug-In . SVG Version: 6.00 Build 0)  -->
<svg version="1.1" id="Layer_1" xmlns="http://www.w3.org/2000/svg" xmlns:xlink="http://www.w3.org/1999/xlink" x="0px" y="0px"
	 viewBox="0 0 512.001 512.001" style="enable-background:new 0 0 512.001 512.001;" xml:space="preserve">
<polygon style="fill:#A93CCB;" points="361.784,274.225 361.784,171.855 473.526,171.855 473.526,489.419 373.825,489.419 
	373.825,489.419 350.965,489.419 350.965,274.225 "/>
<polygon style="fill:#5C1B6F;" points="332.358,183.798 417.665,119.14 502.973,183.798 "/>
<g>
	<polygon style="fill:#DEFF80;" points="449.215,305.95 449.215,351.169 426.537,351.169 426.537,305.951 426.537,305.95 	"/>
	<polygon style="fill:#DEFF80;" points="385.826,369.2 408.506,369.2 408.506,414.419 408.506,414.419 385.826,414.419 	"/>
	<rect x="385.821" y="305.955" style="fill:#DEFF80;" width="22.68" height="45.218"/>
	<polygon style="fill:#DEFF80;" points="449.215,414.419 426.537,414.419 426.537,414.419 426.537,369.2 449.215,369.2 	"/>
</g>
<polygon style="fill:#5C1B6F;" points="385.97,351.169 408.651,351.169 408.651,305.951 408.651,305.95 426.682,305.95 
	426.682,305.951 426.682,351.169 449.361,351.169 449.361,351.169 449.361,369.2 449.361,369.2 426.682,369.2 426.682,414.419 
	426.682,414.419 408.651,414.419 408.651,414.419 408.651,369.2 385.97,369.2 "/>
<rect x="361.791" y="183.799" style="opacity:0.3;fill:#20272E;enable-background:new    ;" width="111.746" height="23.742"/>
<polygon style="fill:#A93CCB;" points="150.217,274.225 150.217,171.855 38.474,171.855 38.474,489.419 138.175,489.419 
	138.175,489.419 161.036,489.419 161.036,274.225 "/>
<rect x="150.201" y="268.017" style="fill:#B857D0;" width="211.591" height="221.4"/>
<polygon style="fill:#5C1B6F;" points="179.642,183.798 94.335,119.14 9.028,183.798 "/>
<polygon style="fill:#9331B2;" points="304.832,164.432 304.832,75.689 207.169,75.689 207.169,221.35 207.917,220.908 
	207.917,221.141 304.477,221.141 304.832,221.35 304.832,221.141 304.832,221.141 "/>
<g>
	<polygon style="fill:#5C1B6F;" points="170.694,87.239 256,22.582 341.307,87.239 	"/>
	<polygon style="fill:#5C1B6F;" points="394.254,274.225 256,192.476 117.747,274.225 	"/>
	<polygon style="fill:#5C1B6F;" points="287.695,351.169 265.016,351.169 265.016,305.951 265.016,305.95 246.985,305.95 
		246.985,305.951 246.985,351.169 224.305,351.169 224.305,369.2 246.985,369.2 246.985,414.419 246.985,414.419 265.016,414.419 
		265.016,414.419 265.016,369.2 287.695,369.2 	"/>
</g>
<g>
	<polygon style="fill:#DEFF80;" points="62.785,305.95 62.785,351.169 85.464,351.169 85.464,305.951 85.464,305.95 	"/>
	<polygon style="fill:#DEFF80;" points="126.175,369.2 103.495,369.2 103.495,414.419 103.495,414.419 126.176,414.419 	"/>
	<rect x="103.5" y="305.955" style="fill:#DEFF80;" width="22.68" height="45.218"/>
	<polygon style="fill:#DEFF80;" points="62.785,414.419 85.464,414.419 85.464,414.419 85.464,369.2 62.785,369.2 	"/>
	<polygon style="fill:#DEFF80;" points="224.305,305.95 224.305,351.169 246.985,351.169 246.985,305.951 246.985,305.95 	"/>
	<polygon style="fill:#DEFF80;" points="287.696,369.2 265.016,369.2 265.016,414.419 265.016,414.419 287.696,414.419 	"/>
	<rect x="265.012" y="305.955" style="fill:#DEFF80;" width="22.68" height="45.218"/>
	<polygon style="fill:#DEFF80;" points="224.305,414.419 246.985,414.419 246.985,414.419 246.985,369.2 224.305,369.2 	"/>
</g>
<polygon style="fill:#5C1B6F;" points="126.03,351.169 103.349,351.169 103.349,305.951 103.349,305.95 85.318,305.95 
	85.318,305.951 85.318,351.169 62.64,351.169 62.64,351.169 62.64,369.2 62.64,369.2 85.318,369.2 85.318,414.419 85.318,414.419 
	103.349,414.419 103.349,414.419 103.349,369.2 126.03,369.2 "/>
<g>
	<rect x="38.463" y="183.799" style="opacity:0.3;fill:#20272E;enable-background:new    ;" width="111.746" height="23.742"/>
	<rect x="150.201" y="274.22" style="opacity:0.3;fill:#20272E;enable-background:new    ;" width="211.591" height="23.742"/>
	<rect x="207.167" y="87.236" style="opacity:0.3;fill:#20272E;enable-background:new    ;" width="97.657" height="23.742"/>
	<polygon style="opacity:0.3;fill:#20272E;enable-background:new    ;" points="473.526,183.798 502.973,183.798 417.665,119.14 
		332.358,183.798 361.784,183.798 361.784,255.025 304.832,221.35 304.832,221.141 304.832,221.141 304.832,164.432 
		304.832,164.432 304.832,110.982 304.832,87.239 341.307,87.239 256.001,22.582 256.001,489.419 350.965,489.419 361.794,489.419 
		373.825,489.419 373.825,489.419 473.526,489.419 473.526,207.54 473.537,207.54 473.537,183.798 	"/>
	<path style="fill:#20272E;" d="M508.001,176.305l-84.902-64.351c-3.22-2.439-7.672-2.439-10.892,0L326.9,176.612
		c-3.086,2.339-4.334,6.387-3.1,10.058c1.233,3.671,4.674,6.143,8.546,6.143h20.41v46.406l-38.921-23.014V96.255h27.46
		c0.008,0,0.016,0,0.024,0c4.979,0,9.016-4.035,9.016-9.016c0-3.123-1.588-5.875-3.999-7.491l-84.902-64.351
		c-3.22-2.439-7.672-2.439-10.892,0l-85.307,64.658c-3.086,2.339-4.334,6.387-3.1,10.058c1.233,3.671,4.674,6.143,8.546,6.143
		h27.459v119.952l-38.92,23.014v-46.406h20.41c3.872,0,7.312-2.473,8.546-6.143s-0.013-7.719-3.1-10.058l-85.306-64.66
		c-3.22-2.439-7.672-2.439-10.892,0L3.57,176.612c-3.086,2.339-4.334,6.387-3.1,10.058c1.233,3.671,4.674,6.143,8.546,6.143h20.431
		v296.606c0,4.98,4.037,9.016,9.016,9.016h111.732h211.588h111.733c4.979,0,9.016-4.035,9.016-9.016V192.814h20.431
		c0.008,0,0.016,0,0.024,0c4.979,0,9.016-4.035,9.016-9.016C512,180.675,510.412,177.923,508.001,176.305z M255.989,33.895
		l58.486,44.329H197.503L255.989,33.895z M417.653,130.453l58.486,44.329h-2.625H361.771h-2.605L417.653,130.453z M150.695,265.209
		l1.079-0.638l59.962-35.457c0.002-0.001,0.006-0.002,0.008-0.004l17.336-10.253l26.906-15.91l105.293,62.261L150.695,265.209
		L150.695,265.209z M292.95,203.856l-32.372-19.143c-2.83-1.675-6.347-1.675-9.178,0l-35.227,20.831V96.256h79.632v68.176v41.112
		L292.95,203.856z M94.323,130.453l58.487,44.329h-2.605H38.462h-2.627L94.323,130.453z M47.478,192.814h93.712v57.069
		l-28.043,16.583c-3.498,2.069-5.18,6.221-4.108,10.14c1.072,3.92,4.633,6.637,8.696,6.637h23.444v197.163H47.478V192.814z
		 M159.21,283.24h193.557v197.163H159.21V283.24z M464.499,480.404h-93.701V283.24h23.443c4.063,0,7.624-2.718,8.696-6.637
		c1.072-3.919-0.609-8.071-4.108-10.14l-28.043-16.583v-57.069h93.712v287.591H464.499z"/>
	<path style="fill:#20272E;" d="M135.034,360.171V305.95c0-4.98-4.037-9.016-9.016-9.016H62.628c-4.979,0-9.016,4.035-9.016,9.016
		v108.469c0,4.98,4.037,9.016,9.016,9.016h63.391c4.979,0,9.016-4.035,9.016-9.016v-54.224c0-0.004,0-0.007,0-0.012
		C135.034,360.179,135.034,360.176,135.034,360.171z M117.003,351.168h-13.664v-36.202h13.664V351.168z M85.307,314.966v36.202
		H71.643v-36.202H85.307z M71.643,369.199h13.664v36.204H71.643V369.199z M103.339,405.403v-36.204h13.664v36.204H103.339z"/>
	<path style="fill:#20272E;" d="M287.684,296.935h-63.391c-4.979,0-9.016,4.035-9.016,9.016v108.469c0,4.98,4.037,9.016,9.016,9.016
		h63.391c4.979,0,9.016-4.035,9.016-9.016V305.95C296.7,300.97,292.663,296.935,287.684,296.935z M278.668,351.168h-13.664v-36.202
		h13.664V351.168z M246.972,314.966v36.202h-13.664v-36.202H246.972z M233.309,369.199h13.664v36.204h-13.664V369.199z
		 M265.003,405.403v-36.204h13.664v36.204H265.003z"/>
	<path style="fill:#20272E;" d="M376.942,305.95v108.469c0,4.98,4.037,9.016,9.016,9.016h63.391c4.979,0,9.016-4.035,9.016-9.016
		v-54.224c0-0.004,0-0.007,0-0.012c0-0.005,0-0.007,0-0.012V305.95c0-4.98-4.037-9.016-9.016-9.016h-63.391
		C380.979,296.935,376.942,300.97,376.942,305.95z M394.974,369.199h13.664v36.204h-13.664V369.199z M426.669,405.403v-36.204
		h13.664v36.204H426.669z M440.333,351.168h-13.664v-36.202h13.664V351.168z M408.638,314.966v36.202h-13.664v-36.202H408.638z"/>
</g>
<g>
</g>
<g>
</g>
<g>
</g>
<g>
</g>
<g>
</g>
<g>
</g>
<g>
</g>
<g>
</g>
<g>
</g>
<g>
</g>
<g>
</g>
<g>
</g>
<g>
</g>
<g>
</g>
<g>
</g>
</svg>
