<?xml version="1.0" encoding="iso-8859-1"?>
<!-- Generator: Adobe Illustrator 19.0.0, SVG Export Plug-In . SVG Version: 6.00 Build 0)  -->
<svg version="1.1" id="Layer_1" xmlns="http://www.w3.org/2000/svg" xmlns:xlink="http://www.w3.org/1999/xlink" x="0px" y="0px"
	 viewBox="0 0 512 512" style="enable-background:new 0 0 512 512;" xml:space="preserve">
<polygon style="fill:#A93CCB;" points="365.649,274.89 365.649,168.778 481.477,168.778 481.477,497.951 378.132,497.951 
	378.132,497.951 354.435,497.951 354.435,274.89 "/>
<polygon style="fill:#5C1B6F;" points="335.149,181.158 423.575,114.137 512,181.158 "/>
<g>
	<polygon style="fill:#DEFF80;" points="456.278,307.775 456.278,354.647 432.77,354.647 432.77,307.775 432.77,307.775 	"/>
	<polygon style="fill:#DEFF80;" points="390.571,373.337 414.08,373.337 414.08,420.209 414.08,420.209 390.57,420.209 	"/>
	<rect x="390.566" y="307.78" style="fill:#DEFF80;" width="23.509" height="46.87"/>
	<polygon style="fill:#DEFF80;" points="456.278,420.209 432.77,420.209 432.77,420.209 432.77,373.337 456.278,373.337 	"/>
</g>
<polygon style="fill:#5C1B6F;" points="390.721,354.647 414.229,354.647 414.229,307.775 414.229,307.775 432.92,307.775 
	432.92,307.775 432.92,354.647 456.429,354.647 456.429,354.647 456.429,373.337 456.429,373.337 432.92,373.337 432.92,420.209 
	432.92,420.209 414.229,420.209 414.229,420.209 414.229,373.337 390.721,373.337 "/>
<rect x="365.658" y="181.159" style="opacity:0.3;fill:#20272E;enable-background:new    ;" width="115.83" height="24.61"/>
<polygon style="fill:#A93CCB;" points="146.349,274.89 146.349,168.778 30.523,168.778 30.523,497.951 133.868,497.951 
	133.868,497.951 157.563,497.951 157.563,274.89 "/>
<rect x="146.333" y="268.456" style="fill:#B857D0;" width="219.325" height="229.493"/>
<polygon style="fill:#5C1B6F;" points="176.851,181.158 88.425,114.137 0,181.158 "/>
<polygon style="fill:#9331B2;" points="306.615,161.085 306.615,69.096 205.383,69.096 205.383,220.083 206.158,219.624 
	206.158,219.865 306.249,219.865 306.615,220.083 306.615,219.865 306.617,219.865 306.617,161.085 "/>
<g>
	<polygon style="fill:#5C1B6F;" points="167.574,81.07 255.999,14.049 344.425,81.07 	"/>
	<polygon style="fill:#5C1B6F;" points="399.307,274.89 255.999,190.152 112.693,274.89 	"/>
	<polygon style="fill:#5C1B6F;" points="288.853,354.647 265.345,354.647 265.345,307.775 265.345,307.775 246.654,307.775 
		246.654,307.775 246.654,354.647 223.147,354.647 223.147,373.337 246.654,373.337 246.654,420.209 246.654,420.209 
		265.345,420.209 265.345,420.209 265.345,373.337 288.853,373.337 	"/>
</g>
<g>
	<polygon style="fill:#DEFF80;" points="55.721,307.775 55.722,354.647 79.23,354.647 79.23,307.775 79.23,307.775 	"/>
	<polygon style="fill:#DEFF80;" points="121.429,373.337 97.92,373.337 97.92,420.209 97.92,420.209 121.429,420.209 	"/>
	<rect x="97.925" y="307.78" style="fill:#DEFF80;" width="23.509" height="46.87"/>
	<polygon style="fill:#DEFF80;" points="55.721,420.209 79.23,420.209 79.23,420.209 79.23,373.337 55.722,373.337 	"/>
	<polygon style="fill:#DEFF80;" points="223.147,307.775 223.147,354.647 246.654,354.647 246.654,307.775 246.654,307.775 	"/>
	<polygon style="fill:#DEFF80;" points="288.855,373.337 265.345,373.337 265.345,420.209 265.345,420.209 288.855,420.209 	"/>
	<rect x="265.341" y="307.78" style="fill:#DEFF80;" width="23.509" height="46.87"/>
	<polygon style="fill:#DEFF80;" points="223.147,420.209 246.654,420.209 246.654,420.209 246.654,373.337 223.147,373.337 	"/>
</g>
<polygon style="fill:#5C1B6F;" points="121.278,354.647 97.769,354.647 97.769,307.775 97.769,307.775 79.079,307.775 
	79.079,307.775 79.079,354.647 55.571,354.647 55.571,354.647 55.571,373.337 55.571,373.337 79.079,373.337 79.079,420.209 
	79.079,420.209 97.769,420.209 97.769,420.209 97.769,373.337 121.278,373.337 "/>
<g>
	<rect x="30.511" y="181.159" style="opacity:0.3;fill:#20272E;enable-background:new    ;" width="115.83" height="24.61"/>
	<rect x="146.333" y="274.885" style="opacity:0.3;fill:#20272E;enable-background:new    ;" width="219.325" height="24.61"/>
	<rect x="205.382" y="81.066" style="opacity:0.3;fill:#20272E;enable-background:new    ;" width="101.227" height="24.61"/>
	<polygon style="opacity:0.3;fill:#20272E;enable-background:new    ;" points="481.477,181.158 512,181.158 423.575,114.137 
		335.149,181.158 365.649,181.158 365.649,254.989 306.615,220.081 306.615,219.865 306.617,219.865 306.617,161.085 
		306.615,161.085 306.615,105.68 306.615,81.07 344.425,81.07 255.999,14.049 255.999,497.951 354.435,497.951 365.661,497.951 
		378.132,497.951 378.132,497.951 481.477,497.951 481.477,205.768 481.487,205.768 481.487,181.158 	"/>
</g>
<g>
</g>
<g>
</g>
<g>
</g>
<g>
</g>
<g>
</g>
<g>
</g>
<g>
</g>
<g>
</g>
<g>
</g>
<g>
</g>
<g>
</g>
<g>
</g>
<g>
</g>
<g>
</g>
<g>
</g>
</svg>
