<?xml version="1.0" encoding="iso-8859-1"?>
<!-- Generator: Adobe Illustrator 19.0.0, SVG Export Plug-In . SVG Version: 6.00 Build 0)  -->
<svg version="1.1" id="Layer_1" xmlns="http://www.w3.org/2000/svg" xmlns:xlink="http://www.w3.org/1999/xlink" x="0px" y="0px"
	 viewBox="0 0 512 512" style="enable-background:new 0 0 512 512;" xml:space="preserve">
<path style="fill:#E0E0E2;" d="M389.565,256c0,6.678,0,58.991,0,66.783h-55.652V185.878c-23.374,0-132.452,0-155.826,0
	c0,3.011,0,129.113,0,136.904h-55.652V256c-16.696,0-89.043,0-100.174,0c0,11.13,0,249.322,0,256c17.809,0,447.443,0,467.478,0V256
	C485.287,256,394.017,256,389.565,256z"/>
<path style="fill:#C6C5CA;" d="M489.739,256c-4.452,0-95.722,0-100.174,0c0,6.678,0,58.991,0,66.783h-55.652V185.878
	c-11.13,0-44.522,0-77.913,0V512c111.304,0,223.722,0,233.739,0V256z"/>
<path style="fill:#7C84E8;" d="M366.354,198.447L270.934,9.229c-6.153-12.306-23.713-12.306-29.866,0l-95.42,189.217
	c-5.552,11.101,2.521,24.162,14.933,24.162h190.841C363.833,222.609,371.905,209.548,366.354,198.447z"/>
<path style="fill:#515BE0;" d="M270.934,9.229C267.857,3.077,261.565,0,256,0v222.609h95.42c12.412,0,20.483-13.062,14.934-24.162
	L270.934,9.229z"/>
<path style="fill:#7C84E8;" d="M510.216,265.229l-55.631-111.304c-6.152-12.306-23.713-12.306-29.865,0l-55.631,111.304
	c-5.551,11.101,2.522,24.162,14.934,24.162h111.261C507.695,289.391,515.767,276.331,510.216,265.229z"/>
<path style="fill:#515BE0;" d="M454.585,153.925c-3.075-6.153-9.367-9.229-14.933-9.229v144.696h55.63
	c12.412,0,20.483-13.062,14.934-24.162L454.585,153.925z"/>
<path style="fill:#7C84E8;" d="M142.911,265.229L87.28,153.925c-6.152-12.306-23.713-12.306-29.865,0L1.784,265.229
	c-5.551,11.101,2.522,24.162,14.934,24.162h111.261C140.39,289.391,148.462,276.331,142.911,265.229z"/>
<path style="fill:#515BE0;" d="M87.28,153.925c-3.462-6.925-10.48-9.953-17.159-9.084v144.55h57.856
	c12.412,0,20.483-13.062,14.934-24.162L87.28,153.925z"/>
<path style="fill:#A258CD;" d="M256,378.435c-43.03,0-77.913,34.883-77.913,77.913V512h155.826v-55.652
	C333.913,413.318,299.03,378.435,256,378.435z"/>
<path style="fill:#933EC5;" d="M256,378.435L256,378.435V512h77.913v-55.652C333.913,413.318,299.03,378.435,256,378.435z"/>
<g>
</g>
<g>
</g>
<g>
</g>
<g>
</g>
<g>
</g>
<g>
</g>
<g>
</g>
<g>
</g>
<g>
</g>
<g>
</g>
<g>
</g>
<g>
</g>
<g>
</g>
<g>
</g>
<g>
</g>
</svg>
