<?xml version="1.0" encoding="iso-8859-1"?>
<!-- Generator: Adobe Illustrator 19.0.0, SVG Export Plug-In . SVG Version: 6.00 Build 0)  -->
<svg version="1.1" id="Layer_1" xmlns="http://www.w3.org/2000/svg" xmlns:xlink="http://www.w3.org/1999/xlink" x="0px" y="0px"
	 viewBox="0 0 503.322 503.322" style="enable-background:new 0 0 503.322 503.322;" xml:space="preserve">
<g>
	<g>
		<polygon style="fill:#C8D2DA;" points="17.356,95.458 17.356,225.627 34.712,225.627 34.712,269.017 156.203,269.017 
			156.203,225.627 173.559,225.627 173.559,95.458 		"/>
		<polygon style="fill:#C8D2DA;" points="329.763,95.458 329.763,225.627 347.119,225.627 347.119,269.017 468.61,269.017 
			468.61,225.627 485.966,225.627 485.966,95.458 		"/>
		<polygon style="fill:#C8D2DA;" points="26.034,503.322 477.288,503.322 477.288,338.441 26.034,338.441 		"/>
	</g>
	<g>
		<polygon style="fill:#9EADB7;" points="477.288,338.441 26.034,338.441 0,269.017 503.322,269.017 		"/>
		<polygon style="fill:#9EADB7;" points="312.407,269.017 347.119,269.017 347.119,225.627 312.407,225.627 		"/>
		<polygon style="fill:#9EADB7;" points="390.508,269.017 425.22,269.017 425.22,225.627 390.508,225.627 		"/>
		<polygon style="fill:#9EADB7;" points="468.61,269.017 503.322,269.017 503.322,225.627 468.61,225.627 		"/>
		<polygon style="fill:#9EADB7;" points="0,269.017 34.712,269.017 34.712,225.627 0,225.627 		"/>
		<polygon style="fill:#9EADB7;" points="78.102,269.017 112.814,269.017 112.814,225.627 78.102,225.627 		"/>
		<polygon style="fill:#9EADB7;" points="156.203,269.017 190.915,269.017 190.915,225.627 156.203,225.627 		"/>
		<polygon style="fill:#9EADB7;" points="234.305,269.017 269.017,269.017 269.017,225.627 234.305,225.627 		"/>
	</g>
	<g>
		<polygon style="fill:#C8D2DA;" points="0,43.39 34.712,43.39 34.712,0 0,0 		"/>
		<polygon style="fill:#C8D2DA;" points="78.102,43.39 112.814,43.39 112.814,0 78.102,0 		"/>
		<polygon style="fill:#C8D2DA;" points="156.203,43.39 190.915,43.39 190.915,0 156.203,0 		"/>
	</g>
	<g>
		<path style="fill:#707D84;" d="M216.949,312.407h-69.424c-4.799,0-8.678-3.888-8.678-8.678c0-4.79,3.879-8.678,8.678-8.678h69.424
			c4.799,0,8.678,3.888,8.678,8.678C225.627,308.519,221.748,312.407,216.949,312.407"/>
		<path style="fill:#707D84;" d="M355.797,312.407h-69.424c-4.799,0-8.678-3.888-8.678-8.678c0-4.79,3.879-8.678,8.678-8.678h69.424
			c4.799,0,8.678,3.888,8.678,8.678C364.475,308.519,360.596,312.407,355.797,312.407"/>
		<path style="fill:#707D84;" d="M260.339,303.729c0,4.79-3.888,8.678-8.678,8.678s-8.678-3.888-8.678-8.678
			c0-4.79,3.888-8.678,8.678-8.678S260.339,298.939,260.339,303.729"/>
		<path style="fill:#707D84;" d="M442.576,312.407H425.22c-4.799,0-8.678-3.888-8.678-8.678c0-4.79,3.879-8.678,8.678-8.678h17.356
			c4.799,0,8.678,3.888,8.678,8.678C451.254,308.519,447.375,312.407,442.576,312.407"/>
		<path style="fill:#707D84;" d="M399.186,303.729c0,4.79-3.888,8.678-8.678,8.678s-8.678-3.888-8.678-8.678
			c0-4.79,3.888-8.678,8.678-8.678S399.186,298.939,399.186,303.729"/>
	</g>
	<g>
		<path style="fill:#9EADB7;" d="M78.102,390.508H60.746c-4.799,0-8.678-3.888-8.678-8.678c0-4.79,3.879-8.678,8.678-8.678h17.356
			c4.799,0,8.678,3.888,8.678,8.678C86.78,386.621,82.901,390.508,78.102,390.508"/>
		<path style="fill:#9EADB7;" d="M156.203,390.508h-8.678c-4.799,0-8.678-3.888-8.678-8.678c0-4.79,3.879-8.678,8.678-8.678h8.678
			c4.799,0,8.678,3.888,8.678,8.678C164.881,386.621,161.002,390.508,156.203,390.508"/>
		<path style="fill:#9EADB7;" d="M121.492,381.831c0,4.79-3.888,8.678-8.678,8.678s-8.678-3.888-8.678-8.678
			c0-4.79,3.888-8.678,8.678-8.678S121.492,377.04,121.492,381.831"/>
		<path style="fill:#9EADB7;" d="M112.814,468.61H60.746c-4.799,0-8.678-3.888-8.678-8.678c0-4.79,3.879-8.678,8.678-8.678h52.068
			c4.799,0,8.678,3.888,8.678,8.678C121.492,464.722,117.612,468.61,112.814,468.61"/>
		<path style="fill:#9EADB7;" d="M156.203,468.61h-8.678c-4.799,0-8.678-3.888-8.678-8.678c0-4.79,3.879-8.678,8.678-8.678h8.678
			c4.799,0,8.678,3.888,8.678,8.678C164.881,464.722,161.002,468.61,156.203,468.61"/>
		<path style="fill:#9EADB7;" d="M442.576,390.508h-52.068c-4.799,0-8.678-3.888-8.678-8.678c0-4.79,3.879-8.678,8.678-8.678h52.068
			c4.799,0,8.678,3.888,8.678,8.678C451.254,386.621,447.375,390.508,442.576,390.508"/>
		<path style="fill:#9EADB7;" d="M355.797,390.508h-8.678c-4.799,0-8.678-3.888-8.678-8.678c0-4.79,3.879-8.678,8.678-8.678h8.678
			c4.799,0,8.678,3.888,8.678,8.678C364.475,386.621,360.596,390.508,355.797,390.508"/>
		<path style="fill:#9EADB7;" d="M355.797,468.61h-8.678c-4.799,0-8.678-3.888-8.678-8.678c0-4.79,3.879-8.678,8.678-8.678h8.678
			c4.799,0,8.678,3.888,8.678,8.678C364.475,464.722,360.596,468.61,355.797,468.61"/>
		<path style="fill:#9EADB7;" d="M442.576,468.61H425.22c-4.799,0-8.678-3.888-8.678-8.678c0-4.79,3.879-8.678,8.678-8.678h17.356
			c4.799,0,8.678,3.888,8.678,8.678C451.254,464.722,447.375,468.61,442.576,468.61"/>
		<path style="fill:#9EADB7;" d="M399.186,459.932c0,4.79-3.888,8.678-8.678,8.678s-8.678-3.888-8.678-8.678
			c0-4.79,3.888-8.678,8.678-8.678S399.186,455.142,399.186,459.932"/>
	</g>
	<g>
		<path style="fill:#707D84;" d="M78.102,312.407H60.746c-4.799,0-8.678-3.888-8.678-8.678c0-4.79,3.879-8.678,8.678-8.678h17.356
			c4.799,0,8.678,3.888,8.678,8.678C86.78,308.519,82.901,312.407,78.102,312.407"/>
		<path style="fill:#707D84;" d="M104.136,303.729c0-4.79,3.888-8.678,8.678-8.678s8.678,3.888,8.678,8.678
			c0,4.79-3.888,8.678-8.678,8.678S104.136,308.519,104.136,303.729"/>
	</g>
	<polygon style="fill:#9EADB7;" points="173.559,95.458 17.356,95.458 0,43.39 190.915,43.39 	"/>
	<g>
		<polygon style="fill:#C8D2DA;" points="312.407,43.39 347.119,43.39 347.119,0 312.407,0 		"/>
		<polygon style="fill:#C8D2DA;" points="390.508,43.39 425.22,43.39 425.22,0 390.508,0 		"/>
		<polygon style="fill:#C8D2DA;" points="468.61,43.39 503.322,43.39 503.322,0 468.61,0 		"/>
	</g>
	<g>
		<polygon style="fill:#9EADB7;" points="485.966,95.458 329.763,95.458 312.407,43.39 503.322,43.39 		"/>
		<path style="fill:#9EADB7;" d="M303.729,503.322H199.593v-69.424c0-28.759,23.309-52.068,52.068-52.068
			s52.068,23.309,52.068,52.068V503.322z"/>
	</g>
	<path style="fill:#707D84;" d="M269.017,503.322h-34.712v-69.424c0-9.589,7.767-17.356,17.356-17.356s17.356,7.767,17.356,17.356
		V503.322z"/>
	<g>
		<path style="fill:#9EADB7;" d="M112.814,190.915H78.102v-43.39c0-9.589,7.767-17.356,17.356-17.356s17.356,7.767,17.356,17.356
			V190.915z"/>
		<path style="fill:#9EADB7;" d="M425.22,190.915h-34.712v-43.39c0-9.589,7.767-17.356,17.356-17.356s17.356,7.767,17.356,17.356
			V190.915z"/>
	</g>
</g>
<g>
</g>
<g>
</g>
<g>
</g>
<g>
</g>
<g>
</g>
<g>
</g>
<g>
</g>
<g>
</g>
<g>
</g>
<g>
</g>
<g>
</g>
<g>
</g>
<g>
</g>
<g>
</g>
<g>
</g>
</svg>
