<?xml version="1.0" encoding="iso-8859-1"?>
<!-- Generator: Adobe Illustrator 19.0.0, SVG Export Plug-In . SVG Version: 6.00 Build 0)  -->
<svg version="1.1" id="Capa_1" xmlns="http://www.w3.org/2000/svg" xmlns:xlink="http://www.w3.org/1999/xlink" x="0px" y="0px"
	 viewBox="0 0 59 59" style="enable-background:new 0 0 59 59;" xml:space="preserve">
<polygon style="fill:#ECF0F1;" points="58.5,59 16.5,59 16.5,29 45.5,29 58.5,39 "/>
<rect x="3.5" y="25" style="fill:#7F6E5D;" width="12" height="4"/>
<polygon style="fill:#CBB292;" points="17.5,25 1.5,25 7.5,9 11.5,9 "/>
<path style="fill:#E4C05C;" d="M12.5,3h-2V1c0-0.552-0.448-1-1-1s-1,0.448-1,1v2h-2c-0.552,0-1,0.448-1,1s0.448,1,1,1h2v4
	c0,0.552,0.448,1,1,1s1-0.448,1-1V5h2c0.552,0,1-0.448,1-1S13.052,3,12.5,3z"/>
<path style="fill:#8697CB;" d="M22.5,39c-1.65,0-3,1.35-3,3v14h6V42C25.5,40.35,24.15,39,22.5,39z"/>
<path style="fill:#8697CB;" d="M32.5,39c-1.65,0-3,1.35-3,3v14h6V42C35.5,40.35,34.15,39,32.5,39z"/>
<path style="fill:#8697CB;" d="M42.5,39c-1.65,0-3,1.35-3,3v14h6V42C45.5,40.35,44.15,39,42.5,39z"/>
<path style="fill:#8697CB;" d="M52.5,39c-1.65,0-3,1.35-3,3v14h6V42C55.5,40.35,54.15,39,52.5,39z"/>
<rect x="1.5" y="36" style="fill:#ECF0F1;" width="15" height="23"/>
<path style="fill:#7F5B53;" d="M9,39c-2.475,0-4.5,2.025-4.5,4.5V59h9V43.5C13.5,41.025,11.475,39,9,39z"/>
<circle style="fill:#E4C05C;" cx="9.5" cy="19" r="3"/>
<polygon style="fill:#7F5B53;" points="54.6,36 45.5,29 1.5,29 0.5,36 "/>
<g>
</g>
<g>
</g>
<g>
</g>
<g>
</g>
<g>
</g>
<g>
</g>
<g>
</g>
<g>
</g>
<g>
</g>
<g>
</g>
<g>
</g>
<g>
</g>
<g>
</g>
<g>
</g>
<g>
</g>
</svg>
