<?xml version="1.0" encoding="iso-8859-1"?>
<!-- Generator: Adobe Illustrator 19.0.0, SVG Export Plug-In . SVG Version: 6.00 Build 0)  -->
<svg version="1.1" id="Layer_1" xmlns="http://www.w3.org/2000/svg" xmlns:xlink="http://www.w3.org/1999/xlink" x="0px" y="0px"
	 viewBox="0 0 511.995 511.995" style="enable-background:new 0 0 511.995 511.995;" xml:space="preserve">
<path style="fill:#DA4453;" d="M394.676,96.003h-0.016h-85.325c-5.891,0-10.672-4.781-10.672-10.671V42.661
	c0-5.891,4.781-10.656,10.672-10.656h85.325c3.703,0,7.141,1.906,9.078,5.047c1.938,3.156,2.125,7.078,0.469,10.375l-8.281,16.577
	l8.031,16.078c0.891,1.547,1.391,3.344,1.391,5.25C405.348,91.222,400.566,96.003,394.676,96.003z"/>
<path style="fill:#ED5564;" d="M330.663,10.663h-74.678c-5.875,0-10.656,4.78-10.656,10.671v42.67
	c0,5.891,4.781,10.656,10.656,10.656h74.678c5.891,0,10.671-4.766,10.671-10.656v-42.67
	C341.334,15.443,336.554,10.663,330.663,10.663z"/>
<path style="fill:#434A54;" d="M255.985,170.657c-5.875,0-10.656-4.766-10.656-10.656V10.663c0-5.891,4.781-10.656,10.656-10.656
	c5.906,0,10.672,4.766,10.672,10.656v149.338C266.657,165.892,261.892,170.657,255.985,170.657z"/>
<path style="fill:#F6BB42;" d="M319.991,128.002h-31.999c-5.875,0-10.656,4.766-10.656,10.656v10.671h-42.678v-10.671
	c0-5.891-4.766-10.656-10.671-10.656h-32c-5.875,0-10.656,4.766-10.656,10.656v138.667c0,5.89,4.781,10.671,10.656,10.671h128.004
	c5.906,0,10.672-4.781,10.672-10.671V138.658C330.663,132.768,325.897,128.002,319.991,128.002z"/>
<path style="opacity:0.2;fill:#FFFFFF;enable-background:new    ;" d="M319.991,128.002h-31.999
	c-5.875,0-10.656,4.766-10.656,10.656v10.671h-42.678v-10.671c0-5.891-4.766-10.656-10.671-10.656h-32
	c-5.875,0-10.656,4.766-10.656,10.656v21.343c0-5.906,4.781-10.672,10.656-10.672h31.999c5.906,0,10.671,4.766,10.671,10.672v10.656
	h42.678v-10.656c0-5.906,4.781-10.672,10.656-10.672h31.999c5.906,0,10.672,4.766,10.672,10.672v-21.343
	C330.663,132.768,325.897,128.002,319.991,128.002z"/>
<path style="fill:#FFCE54;" d="M394.66,192h-42.67c-5.875,0-10.656,4.766-10.656,10.656v31.998h-42.671v-31.998
	c0-5.891-4.766-10.656-10.671-10.656h-64.006c-5.875,0-10.656,4.766-10.656,10.656v31.998h-42.67v-31.998
	c0-2.828-1.125-5.547-3.125-7.547S162.832,192,159.988,192h-42.655c-5.89,0-10.671,4.766-10.671,10.656v255.991
	c0,5.89,4.781,10.671,10.671,10.671H394.66c5.891,0,10.672-4.781,10.672-10.671V202.656C405.332,196.766,400.551,192,394.66,192z"/>
<g style="opacity:0.2;">
	<path style="fill:#FFFFFF;" d="M223.986,213.327h64.006c5.905,0,10.671,4.766,10.671,10.671v-21.342
		c0-5.891-4.766-10.656-10.671-10.656h-64.006c-5.875,0-10.656,4.766-10.656,10.656v21.342
		C213.33,218.093,218.111,213.327,223.986,213.327z"/>
	<rect x="298.667" y="234.658" style="fill:#FFFFFF;" width="42.671" height="21.344"/>
	<rect x="170.657" y="234.658" style="fill:#FFFFFF;" width="42.67" height="21.344"/>
	<path style="fill:#FFFFFF;" d="M117.333,213.327h42.655c2.844,0,5.547,1.125,7.547,3.125s3.125,4.703,3.125,7.53v-21.326
		c0-2.828-1.125-5.547-3.125-7.547S162.832,192,159.988,192h-42.655c-5.89,0-10.671,4.766-10.671,10.656v21.342
		C106.663,218.093,111.443,213.327,117.333,213.327z"/>
	<path style="fill:#FFFFFF;" d="M394.66,192h-42.67c-5.875,0-10.656,4.766-10.656,10.656v21.342c0-5.905,4.781-10.671,10.656-10.671
		h42.67c5.891,0,10.672,4.766,10.672,10.671v-21.342C405.332,196.766,400.551,192,394.66,192z"/>
</g>
<path style="fill:#434A54;" d="M255.985,298.652c-23.562,0-42.655,19.109-42.655,42.671v92.668h85.333v-92.668
	C298.663,317.762,279.57,298.652,255.985,298.652z"/>
<path style="fill:#FFCE54;" d="M510.578,496.005c-0.688-1.188-16.984-29.062-56.826-56.779
	c-23.141-16.094-49.576-28.906-78.576-38.077c-36.013-11.39-76.122-17.155-119.19-17.155c-43.062,0-83.153,5.766-119.168,17.155
	c-28.999,9.171-55.436,21.983-78.575,38.077C18.4,466.944,2.104,494.818,1.417,496.005c-1.891,3.297-1.891,7.359,0.016,10.656
	s5.438,5.328,9.234,5.328H501.33c3.812,0,7.328-2.031,9.234-5.328S512.469,499.302,510.578,496.005z"/>
<path style="opacity:0.2;fill:#FFFFFF;enable-background:new    ;" d="M5.744,510.77c7.203-10.047,23.702-30.172,52.498-50.218
	c23.14-16.093,49.577-28.905,78.575-38.077c36.015-11.391,76.106-17.155,119.168-17.155c43.068,0,83.178,5.765,119.19,17.155
	c29,9.172,55.436,21.984,78.576,38.077c28.796,20.046,45.295,40.171,52.482,50.218c1.781-0.922,3.297-2.328,4.328-4.109
	c1.906-3.297,1.906-7.359,0.016-10.656c-0.688-1.188-16.984-29.062-56.826-56.779c-23.141-16.094-49.576-28.906-78.576-38.077
	c-36.013-11.39-76.122-17.155-119.19-17.155c-43.062,0-83.153,5.766-119.168,17.155c-28.999,9.171-55.436,21.983-78.575,38.077
	c-39.843,27.718-56.139,55.592-56.826,56.779c-1.891,3.297-1.891,7.359,0.016,10.656C2.463,508.442,3.978,509.849,5.744,510.77z"/>
<g>
	<path style="fill:#F6BB42;" d="M124.88,461.771c4.156,4.172,4.156,10.922,0,15.094c-4.171,4.155-10.921,4.155-15.093,0
		c-4.171-4.172-4.171-10.922,0-15.094C113.959,457.616,120.708,457.616,124.88,461.771z"/>
	<path style="fill:#F6BB42;" d="M167.535,419.101c4.172,4.172,4.172,10.922,0,15.094c-4.156,4.156-10.921,4.156-15.078,0
		c-4.172-4.172-4.172-10.922,0-15.094C156.614,414.944,163.379,414.944,167.535,419.101z"/>
	<path style="fill:#F6BB42;" d="M210.205,461.771c4.156,4.172,4.156,10.922,0,15.094c-4.171,4.155-10.921,4.155-15.093,0
		c-4.156-4.172-4.156-10.922,0-15.094C199.284,457.616,206.034,457.616,210.205,461.771z"/>
	<path style="fill:#F6BB42;" d="M252.876,419.101c4.156,4.172,4.156,10.922,0,15.094c-4.172,4.156-10.922,4.156-15.093,0
		c-4.156-4.172-4.156-10.922,0-15.094C241.954,414.944,248.704,414.944,252.876,419.101z"/>
	<path style="fill:#F6BB42;" d="M295.538,461.771c4.172,4.172,4.172,10.922,0,15.094c-4.156,4.155-10.921,4.155-15.077,0
		c-4.172-4.172-4.172-10.922,0-15.094C284.617,457.616,291.382,457.616,295.538,461.771z"/>
	<path style="fill:#F6BB42;" d="M338.21,419.101c4.155,4.172,4.155,10.922,0,15.094c-4.172,4.156-10.922,4.156-15.094,0
		c-4.156-4.172-4.156-10.922,0-15.094C327.288,414.944,334.038,414.944,338.21,419.101z"/>
	<path style="fill:#F6BB42;" d="M380.863,461.771c4.172,4.172,4.172,10.922,0,15.094c-4.156,4.155-10.906,4.155-15.078,0
		c-4.172-4.172-4.172-10.922,0-15.094C369.957,457.616,376.707,457.616,380.863,461.771z"/>
</g>
<g>
</g>
<g>
</g>
<g>
</g>
<g>
</g>
<g>
</g>
<g>
</g>
<g>
</g>
<g>
</g>
<g>
</g>
<g>
</g>
<g>
</g>
<g>
</g>
<g>
</g>
<g>
</g>
<g>
</g>
</svg>
