<?xml version="1.0" encoding="iso-8859-1"?>
<!-- Generator: Adobe Illustrator 19.0.0, SVG Export Plug-In . SVG Version: 6.00 Build 0)  -->
<svg version="1.1" id="Layer_1" xmlns="http://www.w3.org/2000/svg" xmlns:xlink="http://www.w3.org/1999/xlink" x="0px" y="0px"
	 viewBox="0 0 512.559 512.559" style="enable-background:new 0 0 512.559 512.559;" xml:space="preserve">
<g transform="translate(1 1)">
	<g>
		<polygon style="fill:#00DA6C;" points="110.36,93.253 50.627,76.186 110.36,42.053 		"/>
		<polygon style="fill:#00DA6C;" points="400.493,93.253 460.227,76.186 400.493,42.053 		"/>
	</g>
	<g>
		<polygon style="fill:#FDCC00;" points="221.293,212.719 289.56,212.719 289.56,93.253 221.293,93.253 		"/>
		<polygon style="fill:#FDCC00;" points="298.093,93.253 212.76,93.253 255.427,7.919 		"/>
		<polygon style="fill:#FDCC00;" points="59.16,289.519 50.627,272.453 7.96,357.786 59.16,357.786 		"/>
		<polygon style="fill:#FDCC00;" points="16.493,502.853 59.16,502.853 59.16,357.786 16.493,357.786 		"/>
		<polygon style="fill:#FDCC00;" points="451.693,289.519 460.227,272.453 502.893,357.786 451.693,357.786 		"/>
	</g>
	<polygon style="fill:#FFA800;" points="460.227,272.453 451.693,289.519 485.827,357.786 502.893,357.786 	"/>
	<polygon style="fill:#FDCC00;" points="451.693,502.853 494.36,502.853 494.36,357.786 451.693,357.786 	"/>
	<polygon style="fill:#FFA800;" points="477.293,502.853 494.36,502.853 494.36,357.786 477.293,357.786 	"/>
	<g>
		<polygon style="fill:#FFE100;" points="59.16,502.853 161.56,502.853 161.56,238.319 59.16,238.319 		"/>
		<polygon style="fill:#FFE100;" points="178.627,238.319 42.093,238.319 110.36,118.853 		"/>
		<polygon style="fill:#FFE100;" points="332.227,238.319 349.293,212.719 161.56,212.719 178.627,238.319 161.56,238.319 
			161.56,502.853 349.293,502.853 349.293,238.319 		"/>
		<polygon style="fill:#FFE100;" points="349.293,502.853 451.693,502.853 451.693,238.319 349.293,238.319 		"/>
		<polygon style="fill:#FFE100;" points="332.227,238.319 468.76,238.319 400.493,118.853 		"/>
	</g>
	<polygon style="fill:#FFA800;" points="400.493,118.853 391.96,134.213 451.693,238.319 468.76,238.319 	"/>
	<g>
		<polygon style="fill:#FFFFFF;" points="50.627,272.453 59.16,289.519 25.027,357.786 7.96,357.786 		"/>
		<polygon style="fill:#FFFFFF;" points="16.493,502.853 33.56,502.853 33.56,357.786 16.493,357.786 		"/>
		<polygon style="fill:#FFFFFF;" points="110.36,118.853 118.893,134.213 59.16,238.319 42.093,238.319 		"/>
	</g>
	<g>
		<polygon style="fill:#63D3FD;" points="204.227,502.853 306.627,502.853 306.627,357.786 204.227,357.786 		"/>
		<polygon style="fill:#63D3FD;" points="315.16,357.786 195.693,357.786 255.427,272.453 		"/>
		<polygon style="fill:#63D3FD;" points="238.36,502.853 272.493,502.853 272.493,417.519 238.36,417.519 		"/>
	</g>
	<path d="M161.56,511.386H59.16c-5.12,0-8.533-3.413-8.533-8.533V238.319c0-5.12,3.413-8.533,8.533-8.533h102.4
		c5.12,0,8.533,3.413,8.533,8.533v264.533C170.093,507.973,166.68,511.386,161.56,511.386z M67.693,494.319h85.333V246.853H67.693
		V494.319z"/>
	<path d="M306.627,511.386h-102.4c-5.12,0-8.533-3.413-8.533-8.533V357.786c0-5.12,3.413-8.533,8.533-8.533h102.4
		c5.12,0,8.533,3.413,8.533,8.533v145.067C315.16,507.973,311.747,511.386,306.627,511.386z M212.76,494.319h85.333v-128H212.76
		V494.319z"/>
	<path d="M315.16,366.319H195.693c-3.413,0-5.973-1.707-7.68-4.267c-1.707-2.56-0.853-5.973,0.853-8.533l59.733-85.333
		c3.413-4.267,11.093-4.267,13.653,0l59.733,85.333c1.707,2.56,1.707,5.973,0.853,8.533
		C321.133,364.613,318.573,366.319,315.16,366.319z M211.907,349.253h87.04l-43.52-62.293L211.907,349.253z"/>
	<path d="M289.56,221.253h-68.267c-5.12,0-8.533-3.413-8.533-8.533V93.253c0-5.12,3.413-8.533,8.533-8.533h68.267
		c5.12,0,8.533,3.413,8.533,8.533v119.467C298.093,217.839,294.68,221.253,289.56,221.253z M229.827,204.186h51.2v-102.4h-51.2
		V204.186z"/>
	<path d="M298.093,101.786H212.76c-2.56,0-5.973-1.707-7.68-4.267c-1.707-2.56-1.707-5.973,0-8.533l42.667-85.333
		c2.56-5.973,11.947-5.973,15.36,0l42.667,85.333c1.707,2.56,0.853,5.973,0,8.533C304.067,100.079,300.653,101.786,298.093,101.786z
		 M226.413,84.719h58.027l-29.013-58.027L226.413,84.719z"/>
	<path d="M178.627,246.853H42.093c-3.413,0-5.973-1.707-7.68-4.267c-1.707-2.56-1.707-5.973,0-8.533l68.267-119.467
		c3.413-5.12,11.947-5.12,14.507,0l68.267,119.467c1.707,2.56,1.707,5.973,0,8.533C184.6,245.146,182.04,246.853,178.627,246.853z
		 M56.6,229.786h107.52l-53.76-93.867L56.6,229.786z"/>
	<path d="M59.16,366.319H7.96c-2.56,0-5.973-1.707-7.68-4.267s-1.707-5.973,0-8.533l42.667-85.333c2.56-5.973,12.8-5.973,15.36,0
		l8.533,17.067c0.853,1.707,0.853,2.56,0.853,4.267v68.267C67.693,362.906,64.28,366.319,59.16,366.319z M21.613,349.253h29.013
		v-58.027L21.613,349.253z"/>
	<path d="M59.16,511.386H16.493c-5.12,0-8.533-3.413-8.533-8.533V357.786c0-5.12,3.413-8.533,8.533-8.533H59.16
		c5.12,0,8.533,3.413,8.533,8.533v145.067C67.693,507.973,64.28,511.386,59.16,511.386z M25.027,494.319h25.6v-128h-25.6V494.319z"
		/>
	<path d="M451.693,511.386h-102.4c-5.12,0-8.533-3.413-8.533-8.533V238.319c0-5.12,3.413-8.533,8.533-8.533h102.4
		c5.12,0,8.533,3.413,8.533,8.533v264.533C460.227,507.973,456.813,511.386,451.693,511.386z M357.827,494.319h85.333V246.853
		h-85.333V494.319z"/>
	<path d="M468.76,246.853H332.227c-3.413,0-5.973-1.707-7.68-4.267c-1.707-2.56-1.707-5.973,0-8.533l68.267-119.467
		c3.413-5.12,11.947-5.12,14.507,0l68.267,119.467c1.707,2.56,1.707,5.973,0,8.533C474.733,245.146,472.173,246.853,468.76,246.853z
		 M346.733,229.786h107.52l-53.76-93.867L346.733,229.786z"/>
	<path d="M502.893,366.319h-51.2c-5.12,0-8.533-3.413-8.533-8.533v-68.267c0-1.707,0-2.56,0.853-3.413l8.533-17.067
		c2.56-5.973,11.947-5.973,15.36,0l42.667,85.333c1.707,2.56,0.853,5.973,0,8.533C509.72,365.466,505.453,366.319,502.893,366.319z
		 M460.227,349.253h29.013l-29.013-58.027V349.253z"/>
	<path d="M494.36,511.386h-42.667c-5.12,0-8.533-3.413-8.533-8.533V357.786c0-5.12,3.413-8.533,8.533-8.533h42.667
		c5.12,0,8.533,3.413,8.533,8.533v145.067C502.893,507.973,499.48,511.386,494.36,511.386z M460.227,494.319h25.6v-128h-25.6
		V494.319z"/>
	<path d="M349.293,511.386H161.56c-5.12,0-8.533-3.413-8.533-8.533V238.319c0-5.12,3.413-8.533,8.533-8.533h2.56l-7.68-12.8
		c-1.707-2.56-1.707-5.973,0-8.533c1.707-2.56,4.267-4.267,7.68-4.267h182.613c3.413,0,5.973,1.707,7.68,4.267
		c1.707,2.56,1.707,5.973,0,8.533l-7.68,12.8h2.56c5.12,0,8.533,3.413,8.533,8.533v264.533
		C357.827,507.973,354.413,511.386,349.293,511.386z M170.093,494.319H340.76V246.853h-8.533c-3.413,0-5.973-1.707-7.68-4.267
		c-1.707-2.56-1.707-5.973,0-8.533l7.68-12.8h-153.6l7.68,12.8c1.707,2.56,1.707,5.973,0,8.533c-1.707,2.56-4.267,4.267-7.68,4.267
		h-8.533V494.319z"/>
	<path d="M110.36,332.186c-5.12,0-8.533-3.413-8.533-8.533v-51.2c0-5.12,3.413-8.533,8.533-8.533s8.533,3.413,8.533,8.533v51.2
		C118.893,328.773,115.48,332.186,110.36,332.186z"/>
	<path d="M110.36,477.253c-5.12,0-8.533-3.413-8.533-8.533v-51.2c0-5.12,3.413-8.533,8.533-8.533s8.533,3.413,8.533,8.533v51.2
		C118.893,473.839,115.48,477.253,110.36,477.253z"/>
	<path d="M110.36,391.919c-5.12,0-8.533-3.413-8.533-8.533v-25.6c0-5.12,3.413-8.533,8.533-8.533s8.533,3.413,8.533,8.533v25.6
		C118.893,388.506,115.48,391.919,110.36,391.919z"/>
	<path d="M400.493,332.186c-5.12,0-8.533-3.413-8.533-8.533v-51.2c0-5.12,3.413-8.533,8.533-8.533s8.533,3.413,8.533,8.533v51.2
		C409.027,328.773,405.613,332.186,400.493,332.186z"/>
	<path d="M400.493,477.253c-5.12,0-8.533-3.413-8.533-8.533v-51.2c0-5.12,3.413-8.533,8.533-8.533s8.533,3.413,8.533,8.533v51.2
		C409.027,473.839,405.613,477.253,400.493,477.253z"/>
	<path d="M400.493,391.919c-5.12,0-8.533-3.413-8.533-8.533v-25.6c0-5.12,3.413-8.533,8.533-8.533s8.533,3.413,8.533,8.533v25.6
		C409.027,388.506,405.613,391.919,400.493,391.919z"/>
	<path d="M272.493,511.386H238.36c-5.12,0-8.533-3.413-8.533-8.533v-85.333c0-5.12,3.413-8.533,8.533-8.533h34.133
		c5.12,0,8.533,3.413,8.533,8.533v85.333C281.027,507.973,277.613,511.386,272.493,511.386z M246.893,494.319h17.067v-68.267
		h-17.067V494.319z"/>
	<path d="M204.227,298.053c-5.12,0-8.533-3.413-8.533-8.533v-34.133c0-5.12,3.413-8.533,8.533-8.533c5.12,0,8.533,3.413,8.533,8.533
		v34.133C212.76,294.639,209.347,298.053,204.227,298.053z"/>
	<path d="M306.627,298.053c-5.12,0-8.533-3.413-8.533-8.533v-34.133c0-5.12,3.413-8.533,8.533-8.533s8.533,3.413,8.533,8.533v34.133
		C315.16,294.639,311.747,298.053,306.627,298.053z"/>
	<path d="M255.427,178.586c-5.12,0-8.533-3.413-8.533-8.533v-34.133c0-5.12,3.413-8.533,8.533-8.533s8.533,3.413,8.533,8.533v34.133
		C263.96,175.173,260.547,178.586,255.427,178.586z"/>
	<path d="M110.36,127.386c-5.12,0-8.533-3.413-8.533-8.533v-76.8c0-5.12,3.413-8.533,8.533-8.533s8.533,3.413,8.533,8.533v76.8
		C118.893,123.973,115.48,127.386,110.36,127.386z"/>
	<path d="M110.36,101.786c-0.853,0-1.707,0-2.56,0L48.067,84.719c-3.413-0.853-5.12-4.267-5.973-7.68s0.853-6.827,4.267-8.533
		l59.733-34.133c2.56-1.707,5.973-1.707,8.533,0c2.56,1.707,4.267,4.267,4.267,7.68v51.2c0,2.56-0.853,5.12-3.413,6.827
		C113.773,100.933,112.067,101.786,110.36,101.786z M72.813,73.626l29.013,8.533v-25.6L72.813,73.626z"/>
	<path d="M400.493,127.386c-5.12,0-8.533-3.413-8.533-8.533v-76.8c0-5.12,3.413-8.533,8.533-8.533s8.533,3.413,8.533,8.533v76.8
		C409.027,123.973,405.613,127.386,400.493,127.386z"/>
	<path d="M400.493,101.786c-1.707,0-3.413-0.853-5.12-1.707c-2.56-1.707-3.413-4.267-3.413-6.827v-51.2
		c0-3.413,1.707-5.973,4.267-7.68c2.56-1.707,5.973-1.707,8.533,0l59.733,34.133c2.56,1.707,4.267,5.12,4.267,8.533
		c0,3.413-2.56,5.973-5.973,6.827l-59.733,17.067C402.2,101.786,401.347,101.786,400.493,101.786z M409.027,56.559v25.6
		l29.013-8.533L409.027,56.559z"/>
</g>
<g>
</g>
<g>
</g>
<g>
</g>
<g>
</g>
<g>
</g>
<g>
</g>
<g>
</g>
<g>
</g>
<g>
</g>
<g>
</g>
<g>
</g>
<g>
</g>
<g>
</g>
<g>
</g>
<g>
</g>
</svg>
