<?xml version="1.0" encoding="iso-8859-1"?>
<!-- Generator: Adobe Illustrator 19.0.0, SVG Export Plug-In . SVG Version: 6.00 Build 0)  -->
<svg version="1.1" id="Layer_1" xmlns="http://www.w3.org/2000/svg" xmlns:xlink="http://www.w3.org/1999/xlink" x="0px" y="0px"
	 viewBox="0 0 512.069 512.069" style="enable-background:new 0 0 512.069 512.069;" xml:space="preserve">
<g transform="translate(1 1)">
	<g>
		<path style="fill:#FFE100;" d="M109.968,50.235c-5.12,0-8.533-3.413-8.533-8.533V7.568c0-5.12,3.413-8.533,8.533-8.533
			c5.12,0,8.533,3.413,8.533,8.533v34.133C118.501,46.821,115.088,50.235,109.968,50.235z"/>
		<path style="fill:#FFE100;" d="M417.168,50.235c-5.12,0-8.533-3.413-8.533-8.533V7.568c0-5.12,3.413-8.533,8.533-8.533
			c5.12,0,8.533,3.413,8.533,8.533v34.133C425.701,46.821,422.288,50.235,417.168,50.235z"/>
	</g>
	<g>
		<polygon style="fill:#00DA6C;" points="24.635,169.701 178.235,169.701 178.235,135.568 24.635,135.568 		"/>
		<polygon style="fill:#00DA6C;" points="331.835,169.701 485.435,169.701 485.435,135.568 331.835,135.568 		"/>
	</g>
	<polygon style="fill:#00AD55;" points="468.368,169.701 485.435,169.701 485.435,135.568 468.368,135.568 	"/>
	<g>
		<polygon style="fill:#FFE100;" points="101.435,41.701 7.568,135.568 195.301,135.568 		"/>
		<polygon style="fill:#FFE100;" points="408.635,41.701 314.768,135.568 502.501,135.568 		"/>
	</g>
	<polygon style="fill:#FFA800;" points="408.635,41.701 395.835,54.501 476.901,135.568 502.501,135.568 	"/>
	<g>
		<polygon style="fill:#FDCC00;" points="195.301,246.501 229.435,246.501 229.435,212.368 195.301,212.368 		"/>
		<polygon style="fill:#FDCC00;" points="280.635,246.501 314.768,246.501 314.768,212.368 280.635,212.368 		"/>
	</g>
	<g>
		<polygon style="fill:#FFE100;" points="41.701,417.168 161.168,417.168 161.168,169.701 41.701,169.701 		"/>
		<polygon style="fill:#FFE100;" points="186.768,502.501 16.101,502.501 24.635,417.168 178.235,417.168 		"/>
		<polygon style="fill:#FFE100;" points="348.901,417.168 468.368,417.168 468.368,169.701 348.901,169.701 		"/>
		<polygon style="fill:#FFE100;" points="493.968,502.501 323.301,502.501 331.835,417.168 485.435,417.168 		"/>
	</g>
	<g>
		<polygon style="fill:#FFA800;" points="451.301,417.168 468.368,417.168 468.368,169.701 451.301,169.701 		"/>
		<polygon style="fill:#FFA800;" points="485.435,417.168 468.368,417.168 476.901,502.501 493.968,502.501 		"/>
	</g>
	<g>
		<polygon style="fill:#FFFFFF;" points="24.635,169.701 41.701,169.701 41.701,135.568 24.635,135.568 		"/>
		<polygon style="fill:#FFFFFF;" points="101.435,41.701 114.235,54.501 33.168,135.568 7.568,135.568 		"/>
		<polygon style="fill:#FFFFFF;" points="41.701,417.168 58.768,417.168 58.768,169.701 41.701,169.701 		"/>
		<polygon style="fill:#FFFFFF;" points="24.635,417.168 41.701,417.168 33.168,502.501 16.101,502.501 		"/>
	</g>
	<polygon style="fill:#FFE100;" points="161.168,246.501 161.168,417.168 178.235,417.168 186.768,502.501 323.301,502.501 
		331.835,417.168 348.901,417.168 348.901,246.501 	"/>
	<g>
		<path style="fill:#63D3FD;" d="M229.435,331.835h-34.133v-34.133c0-9.387,7.68-17.067,17.067-17.067l0,0
			c9.387,0,17.067,7.68,17.067,17.067V331.835z"/>
		<path style="fill:#63D3FD;" d="M314.768,331.835h-34.133v-34.133c0-9.387,7.68-17.067,17.067-17.067l0,0
			c9.387,0,17.067,7.68,17.067,17.067V331.835z"/>
		<path style="fill:#63D3FD;" d="M118.501,272.101H84.368v-42.667c0-9.387,7.68-17.067,17.067-17.067l0,0
			c9.387,0,17.067,7.68,17.067,17.067V272.101z"/>
		<path style="fill:#63D3FD;" d="M118.501,374.501H84.368v-42.667c0-9.387,7.68-17.067,17.067-17.067l0,0
			c9.387,0,17.067,7.68,17.067,17.067V374.501z"/>
		<path style="fill:#63D3FD;" d="M425.701,272.101h-34.133v-42.667c0-9.387,7.68-17.067,17.067-17.067l0,0
			c9.387,0,17.067,7.68,17.067,17.067V272.101z"/>
		<path style="fill:#63D3FD;" d="M425.701,374.501h-34.133v-42.667c0-9.387,7.68-17.067,17.067-17.067l0,0
			c9.387,0,17.067,7.68,17.067,17.067V374.501z"/>
		<path style="fill:#63D3FD;" d="M289.168,502.501h-68.267v-102.4c0-18.773,15.36-34.133,34.133-34.133l0,0
			c18.773,0,34.133,15.36,34.133,34.133V502.501z"/>
	</g>
	<path d="M109.968,459.835c0,5.12-3.413,8.533-8.533,8.533c-5.12,0-8.533-3.413-8.533-8.533c0-5.12,3.413-8.533,8.533-8.533
		C106.555,451.301,109.968,454.715,109.968,459.835"/>
	<path d="M101.435,50.235c-5.12,0-8.533-3.413-8.533-8.533V7.568c0-5.12,3.413-8.533,8.533-8.533c5.12,0,8.533,3.413,8.533,8.533
		v34.133C109.968,46.821,106.555,50.235,101.435,50.235z"/>
	<path d="M195.301,144.101H7.568c-3.413,0-6.827-1.707-7.68-5.12c-1.707-3.413-0.853-6.827,1.707-9.387l93.867-93.867
		c3.413-3.413,8.533-3.413,11.947,0l93.867,93.867c2.56,2.56,3.413,5.973,1.707,9.387
		C202.128,142.395,198.715,144.101,195.301,144.101z M28.048,127.035h146.773l-73.387-73.387L28.048,127.035z"/>
	<path d="M161.168,425.701H41.701c-5.12,0-8.533-3.413-8.533-8.533V169.701c0-5.12,3.413-8.533,8.533-8.533h119.467
		c5.12,0,8.533,3.413,8.533,8.533v247.467C169.701,422.288,166.288,425.701,161.168,425.701z M50.235,408.635h102.4v-230.4h-102.4
		V408.635z"/>
	<path d="M186.768,511.035H16.101c-2.56,0-5.12-0.853-5.973-2.56c-1.707-1.707-2.56-4.267-2.56-6.827l8.533-85.333
		c0.853-4.267,4.267-7.68,8.533-7.68h153.6c4.267,0,7.68,3.413,8.533,7.68l8.533,85.333c0,2.56-0.853,5.12-2.56,6.827
		C191.888,510.181,189.328,511.035,186.768,511.035z M25.488,493.968h151.893l-6.827-68.267H32.315L25.488,493.968z"/>
	<path d="M67.301,468.368H50.235c-5.12,0-8.533-3.413-8.533-8.533c0-5.12,3.413-8.533,8.533-8.533h17.067
		c5.12,0,8.533,3.413,8.533,8.533C75.835,464.955,72.421,468.368,67.301,468.368z"/>
	<path d="M152.635,468.368h-17.067c-5.12,0-8.533-3.413-8.533-8.533c0-5.12,3.413-8.533,8.533-8.533h17.067
		c5.12,0,8.533,3.413,8.533,8.533C161.168,464.955,157.755,468.368,152.635,468.368z"/>
	<path d="M417.168,459.835c0,5.12-3.413,8.533-8.533,8.533c-5.12,0-8.533-3.413-8.533-8.533c0-5.12,3.413-8.533,8.533-8.533
		C413.755,451.301,417.168,454.715,417.168,459.835"/>
	<path d="M374.501,468.368h-17.067c-5.12,0-8.533-3.413-8.533-8.533c0-5.12,3.413-8.533,8.533-8.533h17.067
		c5.12,0,8.533,3.413,8.533,8.533C383.035,464.955,379.621,468.368,374.501,468.368z"/>
	<path d="M459.835,468.368h-17.067c-5.12,0-8.533-3.413-8.533-8.533c0-5.12,3.413-8.533,8.533-8.533h17.067
		c5.12,0,8.533,3.413,8.533,8.533C468.368,464.955,464.955,468.368,459.835,468.368z"/>
	<path d="M58.768,220.901H41.701c-5.12,0-8.533-3.413-8.533-8.533c0-5.12,3.413-8.533,8.533-8.533h17.067
		c5.12,0,8.533,3.413,8.533,8.533C67.301,217.488,63.888,220.901,58.768,220.901z"/>
	<path d="M161.168,306.235h-17.067c-5.12,0-8.533-3.413-8.533-8.533s3.413-8.533,8.533-8.533h17.067c5.12,0,8.533,3.413,8.533,8.533
		S166.288,306.235,161.168,306.235z"/>
	<path d="M58.768,383.035H41.701c-5.12,0-8.533-3.413-8.533-8.533c0-5.12,3.413-8.533,8.533-8.533h17.067
		c5.12,0,8.533,3.413,8.533,8.533C67.301,379.621,63.888,383.035,58.768,383.035z"/>
	<path d="M365.968,220.901h-17.067c-5.12,0-8.533-3.413-8.533-8.533c0-5.12,3.413-8.533,8.533-8.533h17.067
		c5.12,0,8.533,3.413,8.533,8.533C374.501,217.488,371.088,220.901,365.968,220.901z"/>
	<path d="M468.368,306.235h-17.067c-5.12,0-8.533-3.413-8.533-8.533s3.413-8.533,8.533-8.533h17.067c5.12,0,8.533,3.413,8.533,8.533
		S473.488,306.235,468.368,306.235z"/>
	<path d="M365.968,383.035h-17.067c-5.12,0-8.533-3.413-8.533-8.533c0-5.12,3.413-8.533,8.533-8.533h17.067
		c5.12,0,8.533,3.413,8.533,8.533C374.501,379.621,371.088,383.035,365.968,383.035z"/>
	<path d="M118.501,280.635H84.368c-5.12,0-8.533-3.413-8.533-8.533v-42.667c0-14.507,11.093-25.6,25.6-25.6s25.6,11.093,25.6,25.6
		v42.667C127.035,277.221,123.621,280.635,118.501,280.635z M92.901,263.568h17.067v-34.133c0-5.12-3.413-8.533-8.533-8.533
		c-5.12,0-8.533,3.413-8.533,8.533V263.568z"/>
	<path d="M118.501,383.035H84.368c-5.12,0-8.533-3.413-8.533-8.533v-42.667c0-14.507,11.093-25.6,25.6-25.6s25.6,11.093,25.6,25.6
		v42.667C127.035,379.621,123.621,383.035,118.501,383.035z M92.901,365.968h17.067v-34.133c0-5.12-3.413-8.533-8.533-8.533
		c-5.12,0-8.533,3.413-8.533,8.533V365.968z"/>
	<path d="M229.435,340.368h-34.133c-5.12,0-8.533-3.413-8.533-8.533v-34.133c0-14.507,11.093-25.6,25.6-25.6s25.6,11.093,25.6,25.6
		v34.133C237.968,336.955,234.555,340.368,229.435,340.368z M203.835,323.301h17.067v-25.6c0-5.12-3.413-8.533-8.533-8.533
		s-8.533,3.413-8.533,8.533V323.301z"/>
	<path d="M314.768,340.368h-34.133c-5.12,0-8.533-3.413-8.533-8.533v-34.133c0-14.507,11.093-25.6,25.6-25.6s25.6,11.093,25.6,25.6
		v34.133C323.301,336.955,319.888,340.368,314.768,340.368z M289.168,323.301h17.067v-25.6c0-5.12-3.413-8.533-8.533-8.533
		s-8.533,3.413-8.533,8.533V323.301z"/>
	<path d="M178.235,178.235h-153.6c-5.12,0-8.533-3.413-8.533-8.533v-34.133c0-5.12,3.413-8.533,8.533-8.533h153.6
		c5.12,0,8.533,3.413,8.533,8.533v34.133C186.768,174.821,183.355,178.235,178.235,178.235z M33.168,161.168h136.533v-17.067H33.168
		V161.168z"/>
	<path d="M408.635,50.235c-5.12,0-8.533-3.413-8.533-8.533V7.568c0-5.12,3.413-8.533,8.533-8.533c5.12,0,8.533,3.413,8.533,8.533
		v34.133C417.168,46.821,413.755,50.235,408.635,50.235z"/>
	<path d="M502.501,144.101H314.768c-3.413,0-6.827-1.707-7.68-5.12c-1.707-3.413-0.853-6.827,1.707-9.387l93.867-93.867
		c3.413-3.413,8.533-3.413,11.947,0l93.867,93.867c2.56,2.56,3.413,5.973,1.707,9.387
		C509.328,142.395,505.915,144.101,502.501,144.101z M335.248,127.035h146.773l-73.387-73.387L335.248,127.035z"/>
	<path d="M468.368,425.701H348.901c-5.12,0-8.533-3.413-8.533-8.533V169.701c0-5.12,3.413-8.533,8.533-8.533h119.467
		c5.12,0,8.533,3.413,8.533,8.533v247.467C476.901,422.288,473.488,425.701,468.368,425.701z M357.435,408.635h102.4v-230.4h-102.4
		V408.635z"/>
	<path d="M493.968,511.035H323.301c-2.56,0-5.12-0.853-5.973-2.56c-1.707-1.707-2.56-4.267-2.56-6.827l8.533-85.333
		c0.853-4.267,4.267-7.68,8.533-7.68h153.6c4.267,0,7.68,3.413,8.533,7.68l8.533,85.333c0,2.56-0.853,5.12-2.56,6.827
		C499.088,510.181,496.528,511.035,493.968,511.035z M332.688,493.968h151.893l-6.827-68.267h-138.24L332.688,493.968z"/>
	<path d="M425.701,280.635h-34.133c-5.12,0-8.533-3.413-8.533-8.533v-42.667c0-14.507,11.093-25.6,25.6-25.6
		c14.507,0,25.6,11.093,25.6,25.6v42.667C434.235,277.221,430.821,280.635,425.701,280.635z M400.101,263.568h17.067v-34.133
		c0-5.12-3.413-8.533-8.533-8.533c-5.12,0-8.533,3.413-8.533,8.533V263.568z"/>
	<path d="M425.701,383.035h-34.133c-5.12,0-8.533-3.413-8.533-8.533v-42.667c0-14.507,11.093-25.6,25.6-25.6
		c14.507,0,25.6,11.093,25.6,25.6v42.667C434.235,379.621,430.821,383.035,425.701,383.035z M400.101,365.968h17.067v-34.133
		c0-5.12-3.413-8.533-8.533-8.533c-5.12,0-8.533,3.413-8.533,8.533V365.968z"/>
	<path d="M485.435,178.235h-153.6c-5.12,0-8.533-3.413-8.533-8.533v-34.133c0-5.12,3.413-8.533,8.533-8.533h153.6
		c5.12,0,8.533,3.413,8.533,8.533v34.133C493.968,174.821,490.555,178.235,485.435,178.235z M340.368,161.168h136.533v-17.067
		H340.368V161.168z"/>
	<path d="M323.301,511.035H186.768c-4.267,0-7.68-3.413-8.533-7.68l-7.68-77.653h-9.387c-5.12,0-8.533-3.413-8.533-8.533V246.501
		c0-5.12,3.413-8.533,8.533-8.533h187.733c5.12,0,8.533,3.413,8.533,8.533v170.667c0,5.12-3.413,8.533-8.533,8.533h-9.387
		l-7.68,77.653C330.981,507.621,327.568,511.035,323.301,511.035z M194.448,493.968h121.173l7.68-77.653
		c0.853-4.267,4.267-7.68,8.533-7.68h8.533v-153.6H169.701v153.6h8.533c4.267,0,7.68,3.413,8.533,7.68L194.448,493.968z"/>
	<path d="M289.168,511.035h-68.267c-5.12,0-8.533-3.413-8.533-8.533v-102.4c0-23.893,18.773-42.667,42.667-42.667
		s42.667,18.773,42.667,42.667v102.4C297.701,507.621,294.288,511.035,289.168,511.035z M229.435,493.968h51.2v-93.867
		c0-14.507-11.093-25.6-25.6-25.6c-14.507,0-25.6,11.093-25.6,25.6V493.968z"/>
	<path d="M229.435,255.035h-34.133c-5.12,0-8.533-3.413-8.533-8.533v-34.133c0-5.12,3.413-8.533,8.533-8.533h34.133
		c5.12,0,8.533,3.413,8.533,8.533v34.133C237.968,251.621,234.555,255.035,229.435,255.035z M203.835,237.968h17.067v-17.067
		h-17.067V237.968z"/>
	<path d="M314.768,255.035h-34.133c-5.12,0-8.533-3.413-8.533-8.533v-34.133c0-5.12,3.413-8.533,8.533-8.533h34.133
		c5.12,0,8.533,3.413,8.533,8.533v34.133C323.301,251.621,319.888,255.035,314.768,255.035z M289.168,237.968h17.067v-17.067
		h-17.067V237.968z"/>
	<path d="M255.035,468.368c-5.12,0-8.533-3.413-8.533-8.533v-42.667c0-5.12,3.413-8.533,8.533-8.533s8.533,3.413,8.533,8.533v42.667
		C263.568,464.955,260.155,468.368,255.035,468.368z"/>
</g>
<g>
</g>
<g>
</g>
<g>
</g>
<g>
</g>
<g>
</g>
<g>
</g>
<g>
</g>
<g>
</g>
<g>
</g>
<g>
</g>
<g>
</g>
<g>
</g>
<g>
</g>
<g>
</g>
<g>
</g>
</svg>
