<?xml version="1.0" encoding="iso-8859-1"?>
<!-- Generator: Adobe Illustrator 19.1.0, SVG Export Plug-In . SVG Version: 6.00 Build 0)  -->
<svg version="1.1" id="Capa_1" xmlns="http://www.w3.org/2000/svg" xmlns:xlink="http://www.w3.org/1999/xlink" x="0px" y="0px"
	 viewBox="0 0 297 297" style="enable-background:new 0 0 297 297;" xml:space="preserve">
<g>
	<rect x="130.833" y="114.5" style="fill:#FFFFFF;" width="35" height="18"/>
	<polygon style="fill:#FF754A;" points="176.917,98.5 149.167,49.688 121.416,98.5 	"/>
	<path style="fill:#FFFFFF;" d="M74.834,246.5v-106v-51h-35v157H74.834z M48.833,108.5c0-4.418,3.582-8,8-8s8,3.582,8,8v17
		c0,4.418-3.582,8-8,8s-8-3.582-8-8V108.5z"/>
	<polygon style="fill:#FF754A;" points="29.917,73.5 85.416,73.5 57.667,24.688 	"/>
	<path d="M56.833,133.5c4.418,0,8-3.582,8-8v-17c0-4.418-3.582-8-8-8s-8,3.582-8,8v17C48.833,129.918,52.416,133.5,56.833,133.5z"/>
	<path style="fill:#FF754A;" d="M189.849,280.5c-1.082-2.795-1.849-5.828-1.849-9c0-11.355,7.833-20.96,17.833-23.995V148.5h-115
		v99.005c11,3.035,18.166,12.64,18.166,23.995c0,3.172-0.434,6.205-1.516,9h15.35v-40.17c0-14.502,11.201-25.861,25.5-25.861
		s25.5,11.359,25.5,25.861v40.17H189.849z M123.834,189.5c0,4.418-3.582,8-8,8c-4.418,0-8-3.582-8-8v-17c0-4.418,3.582-8,8-8
		c4.418,0,8,3.582,8,8V189.5z M156.833,189.5c0,4.418-3.582,8-8,8s-8-3.582-8-8v-17c0-4.418,3.582-8,8-8s8,3.582,8,8V189.5z
		 M173.833,172.5c0-4.418,3.582-8,8-8s8,3.582,8,8v17c0,4.418-3.582,8-8,8s-8-3.582-8-8V172.5z"/>
	<path style="fill:#A9BD34;" d="M84.166,280.5c4.963,0,9-4.037,9-9s-4.037-9-9-9h-59c-4.963,0-9,4.037-9,9s4.037,9,9,9H84.166z"/>
	<path style="fill:#FFFFFF;" d="M256.833,89.5h-35v51v106h35V89.5z M238.833,133.5c-4.418,0-8-3.582-8-8v-17c0-4.418,3.582-8,8-8
		s8,3.582,8,8v17C246.833,129.918,243.251,133.5,238.833,133.5z"/>
	<polygon style="fill:#FF754A;" points="211.917,73.5 267.417,73.5 239.667,24.688 	"/>
	<path d="M238.833,100.5c-4.418,0-8,3.582-8,8v17c0,4.418,3.582,8,8,8s8-3.582,8-8v-17C246.833,104.082,243.251,100.5,238.833,100.5
		z"/>
	<path style="fill:#FFFFFF;" d="M157.833,240.33c0-5.529-4.173-9.861-9.5-9.861s-9.5,4.332-9.5,9.861v41.17h19V240.33z"/>
	<path style="fill:#A9BD34;" d="M272.167,262.5h-59c-4.963,0-9,4.037-9,9s4.037,9,9,9h59c4.963,0,9-4.037,9-9
		S277.129,262.5,272.167,262.5z"/>
	<path d="M272.833,246.525V89.5h8.333c2.849,0,5.482-1.515,6.915-3.977c1.433-2.463,1.447-5.501,0.04-7.978l-41.5-73
		C245.2,2.045,242.544,0.5,239.667,0.5s-5.533,1.545-6.955,4.046l-41.5,73c-1.407,2.477-1.393,5.515,0.04,7.978
		c1.433,2.462,4.066,3.977,6.915,3.977h7.667v43h-24v-18h8.833c2.849,0,5.482-1.515,6.915-3.977c1.433-2.463,1.447-5.501,0.04-7.978
		l-41.5-73c-1.422-2.501-4.078-4.046-6.955-4.046s-5.533,1.545-6.955,4.046l-41.5,73c-1.407,2.477-1.393,5.515,0.04,7.978
		c1.433,2.462,4.066,3.977,6.915,3.977h7.167v18h-24v-43h8.333c2.849,0,5.482-1.515,6.915-3.977c1.433-2.463,1.447-5.501,0.04-7.978
		l-41.5-73C63.2,2.045,60.543,0.5,57.667,0.5s-5.533,1.545-6.955,4.046l-41.5,73c-1.407,2.477-1.393,5.515,0.04,7.978
		c1.433,2.462,4.066,3.977,6.915,3.977h7.667v157.025C10.833,247.053,0,258.051,0,271.5c0,13.785,11.381,25,25.167,25h247
		c13.785,0,24.833-11.215,24.833-25C297,258.051,286.833,247.053,272.833,246.525z M272.167,280.5h-59c-4.963,0-9-4.037-9-9
		s4.037-9,9-9h59c4.963,0,9,4.037,9,9S277.129,280.5,272.167,280.5z M138.833,240.33c0-5.529,4.173-9.861,9.5-9.861
		s9.5,4.332,9.5,9.861v41.17h-19V240.33z M148.333,214.469c-14.299,0-25.5,11.359-25.5,25.861v40.17h-15.35
		c1.082-2.795,1.516-5.828,1.516-9c0-11.355-7.166-20.96-18.166-23.995V148.5h115v99.005c-10,3.035-17.833,12.64-17.833,23.995
		c0,3.172,0.767,6.205,1.849,9h-16.016v-40.17C173.833,225.828,162.632,214.469,148.333,214.469z M16.167,271.5c0-4.963,4.037-9,9-9
		h59c4.963,0,9,4.037,9,9s-4.037,9-9,9h-59C20.204,280.5,16.167,276.463,16.167,271.5z M29.917,73.5l27.75-48.812L85.416,73.5
		H29.917z M74.834,89.5v51v106h-35v-157H74.834z M149.167,49.688l27.75,48.812h-55.5L149.167,49.688z M165.833,114.5v18h-35v-18
		H165.833z M211.917,73.5l27.75-48.812l27.75,48.812H211.917z M221.833,140.5v-51h35v157h-35V140.5z"/>
	<path d="M115.834,164.5c-4.418,0-8,3.582-8,8v17c0,4.418,3.582,8,8,8c4.418,0,8-3.582,8-8v-17
		C123.834,168.082,120.252,164.5,115.834,164.5z"/>
	<path d="M148.833,164.5c-4.418,0-8,3.582-8,8v17c0,4.418,3.582,8,8,8s8-3.582,8-8v-17C156.833,168.082,153.251,164.5,148.833,164.5
		z"/>
	<path d="M181.833,197.5c4.418,0,8-3.582,8-8v-17c0-4.418-3.582-8-8-8s-8,3.582-8,8v17C173.833,193.918,177.415,197.5,181.833,197.5
		z"/>
</g>
<g>
</g>
<g>
</g>
<g>
</g>
<g>
</g>
<g>
</g>
<g>
</g>
<g>
</g>
<g>
</g>
<g>
</g>
<g>
</g>
<g>
</g>
<g>
</g>
<g>
</g>
<g>
</g>
<g>
</g>
</svg>
