<?xml version="1.0" encoding="iso-8859-1"?>
<!-- Generator: Adobe Illustrator 19.0.0, SVG Export Plug-In . SVG Version: 6.00 Build 0)  -->
<svg version="1.1" id="Layer_1" xmlns="http://www.w3.org/2000/svg" xmlns:xlink="http://www.w3.org/1999/xlink" x="0px" y="0px"
	 viewBox="0 0 512 512" style="enable-background:new 0 0 512 512;" xml:space="preserve">
<g>
	<rect x="10.199" y="256" style="fill:#FFAD61;" width="491.602" height="245.801"/>
	<rect x="10.199" y="134.629" style="fill:#FFAD61;" width="367.508" height="121.371"/>
	<rect x="10.199" y="10.199" style="fill:#FFAD61;" width="246.137" height="124.43"/>
</g>
<g>
	<path style="fill:#534741;" d="M0,501.801C0,507.433,4.566,512,10.199,512h491.602c5.633,0,10.199-4.567,10.199-10.199V256
		c0-5.632-4.566-10.199-10.199-10.199H387.908V134.629c0-5.632-4.566-10.199-10.199-10.199h-111.17V10.199
		C266.539,4.567,261.973,0,256.34,0H10.199C4.566,0,0,4.567,0,10.199V501.801z M367.51,144.829v100.972H144.489V144.829H367.51z
		 M367.511,388.25v103.352H144.489V388.25H367.511z M20.398,367.852V266.199H246.14v101.652H20.398z M20.398,245.801V144.829
		h103.692v100.972H20.398z M20.398,20.398H246.14V124.43H20.398V20.398z M20.398,388.25h103.692v103.352H20.398V388.25z
		 M491.602,266.199v225.402H387.909V388.25h33.318c5.633,0,10.199-4.567,10.199-10.199c0-5.632-4.566-10.199-10.199-10.199H266.539
		V266.199H491.602z"/>
	<path style="fill:#534741;" d="M457.944,388.25h6.12c5.633,0,10.199-4.567,10.199-10.199c0-5.632-4.566-10.199-10.199-10.199h-6.12
		c-5.633,0-10.199,4.567-10.199,10.199C447.745,383.683,452.311,388.25,457.944,388.25z"/>
</g>
<g>
</g>
<g>
</g>
<g>
</g>
<g>
</g>
<g>
</g>
<g>
</g>
<g>
</g>
<g>
</g>
<g>
</g>
<g>
</g>
<g>
</g>
<g>
</g>
<g>
</g>
<g>
</g>
<g>
</g>
</svg>
