<?xml version="1.0" encoding="iso-8859-1"?>
<!-- Generator: Adobe Illustrator 19.0.0, SVG Export Plug-In . SVG Version: 6.00 Build 0)  -->
<svg version="1.1" id="Layer_1" xmlns="http://www.w3.org/2000/svg" xmlns:xlink="http://www.w3.org/1999/xlink" x="0px" y="0px"
	 viewBox="0 0 512 512" style="enable-background:new 0 0 512 512;" xml:space="preserve">
<rect x="169.185" y="98.979" style="fill:#CFF2F2;" width="174.024" height="118.154"/>
<polygon style="fill:#80E2E2;" points="309.451,194.628 202.549,194.628 163.165,295.385 163.165,360.088 348.835,360.088 
	348.835,295.385 "/>
<g>
	<polygon style="fill:#00BAB9;" points="331.956,110.232 331.956,251.499 410.725,251.499 410.725,110.232 371.341,87.726 	"/>
	<polygon style="fill:#00BAB9;" points="101.669,110.232 101.669,251.499 180.438,251.499 180.438,110.232 141.053,87.726 	"/>
	<rect x="163.165" y="337.582" style="fill:#00BAB9;" width="185.67" height="132.22"/>
</g>
<g>
	<rect x="326.33" y="272.879" style="fill:#CFF2F2;" width="168.791" height="196.923"/>
	<rect x="16.879" y="272.879" style="fill:#CFF2F2;" width="168.791" height="196.923"/>
</g>
<path style="fill:#FE547B;" d="M495.121,447.297H16.879C7.596,447.297,0,454.892,0,464.176v45.011h512v-45.011
	C512,454.892,504.404,447.297,495.121,447.297z"/>
<path style="fill:#41D4D3;" d="M495.121,177.748h-11.253c-9.284,0-16.879,7.596-16.879,16.879v34.366h-33.758v-34.366
	c0-9.284-7.596-16.879-16.879-16.879h-11.253c-9.284,0-16.879,7.596-16.879,16.879v34.366h-33.758v-34.366
	c0-9.284-7.596-16.879-16.879-16.879H326.33c-9.284,0-16.879,7.596-16.879,16.879v83.878c0,9.284,7.596,16.879,16.879,16.879
	h168.791c9.284,0,16.879-7.596,16.879-16.879v-83.878C512,185.344,504.404,177.748,495.121,177.748z"/>
<path style="fill:#FFFFFF;" d="M433.231,360.088v45.011H388.22v-45.011c0-12.434,10.071-22.505,22.505-22.505
	C423.16,337.582,433.231,347.654,433.231,360.088z"/>
<polygon style="fill:#FE7F9C;" points="367.965,42.715 331.956,110.232 180.438,110.232 144.429,42.715 "/>
<path style="fill:#41D4D3;" d="M185.67,177.748h-11.253c-9.284,0-16.879,7.596-16.879,16.879v34.366H123.78v-34.366
	c0-9.284-7.596-16.879-16.879-16.879H95.648c-9.284,0-16.879,7.596-16.879,16.879v34.366H45.011v-34.366
	c0-9.284-7.596-16.879-16.879-16.879H16.879C7.596,177.748,0,185.344,0,194.628v83.878c0,9.284,7.596,16.879,16.879,16.879H185.67
	c9.284,0,16.879-7.596,16.879-16.879v-83.878C202.549,185.344,194.954,177.748,185.67,177.748z"/>
<path style="fill:#FFFFFF;" d="M123.78,360.088v45.011H78.769v-45.011c0-12.434,10.071-22.505,22.505-22.505
	S123.78,347.654,123.78,360.088z"/>
<g>
	<polygon style="fill:#FE547B;" points="371.341,2.813 331.956,110.232 410.725,110.232 	"/>
	<polygon style="fill:#FE547B;" points="141.053,2.813 101.669,110.232 180.438,110.232 	"/>
</g>
<g>
</g>
<g>
</g>
<g>
</g>
<g>
</g>
<g>
</g>
<g>
</g>
<g>
</g>
<g>
</g>
<g>
</g>
<g>
</g>
<g>
</g>
<g>
</g>
<g>
</g>
<g>
</g>
<g>
</g>
</svg>
