<?xml version="1.0" encoding="iso-8859-1"?>
<!-- Generator: Adobe Illustrator 19.0.0, SVG Export Plug-In . SVG Version: 6.00 Build 0)  -->
<svg version="1.1" id="Layer_1" xmlns="http://www.w3.org/2000/svg" xmlns:xlink="http://www.w3.org/1999/xlink" x="0px" y="0px"
	 viewBox="0 0 512 512" style="enable-background:new 0 0 512 512;" xml:space="preserve">
<path style="fill:#86A5A6;" d="M275.064,40.851h-32.681l32.681,337.702h32.681V73.532C307.745,55.557,293.038,40.851,275.064,40.851
	z"/>
<path style="fill:#AFC3C3;" d="M242.383,40.851h-5.447L29.957,128v250.553h245.106V73.532
	C275.064,55.557,260.357,40.851,242.383,40.851z"/>
<polygon style="fill:#5E8788;" points="236.936,95.319 236.936,128 29.957,128 8.17,95.319 122.553,73.532 "/>
<polygon style="fill:#86A5A6;" points="236.936,40.851 236.936,95.319 8.17,95.319 8.17,8.17 40.851,8.17 40.851,40.851 
	73.532,40.851 73.532,8.17 106.213,8.17 106.213,40.851 138.894,40.851 138.894,8.17 171.574,8.17 171.574,40.851 204.255,40.851 
	204.255,8.17 236.936,8.17 "/>
<polygon style="fill:#5E8788;" points="405.787,345.872 340.426,503.83 307.745,503.83 275.064,424.851 307.745,345.872 "/>
<g>
	<polygon style="fill:#86A5A6;" points="503.83,128 503.83,503.83 471.149,503.83 438.468,315.915 471.149,128 	"/>
	<rect x="8.17" y="345.872" style="fill:#86A5A6;" width="299.574" height="157.957"/>
</g>
<rect x="340.426" y="128" style="fill:#AFC3C3;" width="130.723" height="375.83"/>
<path style="fill:#D7E1E1;" d="M471.149,411.234v92.596h-49.021l-21.787-63.728l21.787-77.889
	C449.198,362.213,471.149,384.163,471.149,411.234z"/>
<path style="fill:#FFFFFF;" d="M422.128,362.213V503.83h-49.021v-92.596C373.106,384.163,395.057,362.213,422.128,362.213z"/>
<g>
	<path style="fill:#35696A;" d="M422.128,394.894c-9.01,0-16.34,7.33-16.34,16.34v92.596h32.681v-92.596
		C438.468,402.224,431.138,394.894,422.128,394.894z"/>
	<rect x="111.66" y="171.574" style="fill:#35696A;" width="43.574" height="43.574"/>
	<rect x="111.66" y="258.723" style="fill:#35696A;" width="43.574" height="43.574"/>
</g>
<path d="M373.106,479.319c4.513,0,8.17-3.658,8.17-8.17v-59.915c0-22.526,18.325-40.851,40.851-40.851
	c22.526,0,40.851,18.325,40.851,40.851v59.915c0,4.512,3.657,8.17,8.17,8.17c4.513,0,8.17-3.658,8.17-8.17v-59.915
	c0-31.536-25.657-57.191-57.191-57.191s-57.191,25.656-57.191,57.191v59.915C364.936,475.661,368.593,479.319,373.106,479.319z"/>
<path d="M171.574,103.489h32.681c4.513,0,8.17-3.658,8.17-8.17c0-4.512-3.657-8.17-8.17-8.17h-32.681c-4.513,0-8.17,3.658-8.17,8.17
	C163.404,99.831,167.061,103.489,171.574,103.489z"/>
<path d="M155.234,163.404H111.66c-4.513,0-8.17,3.658-8.17,8.17v43.574c0,4.512,3.657,8.17,8.17,8.17h43.574
	c4.513,0,8.17-3.658,8.17-8.17v-43.574C163.404,167.062,159.747,163.404,155.234,163.404z M147.064,206.979H119.83v-27.234h27.234
	V206.979z"/>
<path d="M155.234,250.553H111.66c-4.513,0-8.17,3.658-8.17,8.17v43.574c0,4.512,3.657,8.17,8.17,8.17h43.574
	c4.513,0,8.17-3.658,8.17-8.17v-43.574C163.404,254.211,159.747,250.553,155.234,250.553z M147.064,294.128H119.83v-27.234h27.234
	V294.128z"/>
<path d="M503.83,119.83H340.426c-4.513,0-8.17,3.658-8.17,8.17v209.702h-16.34V73.532c0-22.526-18.325-40.851-40.851-40.851h-29.957
	V8.17c0-4.512-3.657-8.17-8.17-8.17h-32.681c-4.513,0-8.17,3.658-8.17,8.17v24.511h-16.34V8.17c0-4.512-3.657-8.17-8.17-8.17
	h-32.681c-4.513,0-8.17,3.658-8.17,8.17v24.511h-16.34V8.17c0-4.512-3.657-8.17-8.17-8.17H73.532c-4.513,0-8.17,3.658-8.17,8.17
	v24.511h-16.34V8.17c0-4.512-3.657-8.17-8.17-8.17H8.17C3.657,0,0,3.658,0,8.17v87.149c0,1.612,0.477,3.19,1.373,4.532
	l20.415,30.623v207.228H8.17c-4.513,0-8.17,3.658-8.17,8.17V503.83c0,4.512,3.657,8.17,8.17,8.17h495.66
	c4.513,0,8.17-3.658,8.17-8.17V128C512,123.488,508.343,119.83,503.83,119.83z M32.681,16.34v24.511c0,4.512,3.657,8.17,8.17,8.17
	h32.681c4.513,0,8.17-3.658,8.17-8.17V16.34h16.34v24.511c0,4.512,3.657,8.17,8.17,8.17h32.681c4.513,0,8.17-3.658,8.17-8.17V16.34
	h16.34v24.511c0,4.512,3.657,8.17,8.17,8.17h32.681c4.513,0,8.17-3.658,8.17-8.17V16.34h16.34V119.83H34.33l-10.894-16.34h115.457
	c4.513,0,8.17-3.658,8.17-8.17c0-4.512-3.657-8.17-8.17-8.17H16.34V16.34H32.681z M38.128,136.17h198.809
	c4.513,0,8.17-3.658,8.17-8.17V49.021h29.957c13.515,0,24.511,10.995,24.511,24.511v264.17H38.128V136.17z M332.255,495.66H16.34
	V354.043h315.915V495.66z M430.298,495.66h-16.34v-84.426c0-4.506,3.665-8.17,8.17-8.17s8.17,3.665,8.17,8.17V495.66z
	 M495.66,495.66h-49.021v-84.426c0-13.516-10.996-24.511-24.511-24.511c-13.515,0-24.511,10.995-24.511,24.511v84.426h-49.021
	V136.17H495.66V495.66z"/>
<circle cx="95.319" cy="433.021" r="8.17"/>
<circle cx="460.255" cy="182.468" r="8.17"/>
<circle cx="62.638" cy="400.34" r="8.17"/>
<g>
</g>
<g>
</g>
<g>
</g>
<g>
</g>
<g>
</g>
<g>
</g>
<g>
</g>
<g>
</g>
<g>
</g>
<g>
</g>
<g>
</g>
<g>
</g>
<g>
</g>
<g>
</g>
<g>
</g>
</svg>
