<?xml version="1.0" encoding="iso-8859-1"?>
<!-- Generator: Adobe Illustrator 19.0.0, SVG Export Plug-In . SVG Version: 6.00 Build 0)  -->
<svg version="1.1" id="Layer_1" xmlns="http://www.w3.org/2000/svg" xmlns:xlink="http://www.w3.org/1999/xlink" x="0px" y="0px"
	 viewBox="0 0 439.999 439.999" style="enable-background:new 0 0 439.999 439.999;" xml:space="preserve">
<g transform="translate(0 -1020.36)" shape-rendering="auto" image-rendering="auto" color-rendering="auto" color-interpolation="sRGB">
	<path style="fill:#464C63;" d="M220.015,1020.361c-52.893,0-95.248,36.314-124.718,84.906
		c-29.469,48.594-46.952,110.102-50.72,164.811c-4.08,59.246,13.907,107.24,46.126,140.031
		c32.219,32.793,78.274,50.25,129.312,50.25c51.037,0,97.093-17.455,129.312-50.25c32.219-32.793,50.176-80.785,46.094-140.031
		c-3.768-54.711-21.218-116.217-50.688-164.811S272.908,1020.36,220.015,1020.361L220.015,1020.361z M137.234,1076.361h165.562
		c10.266,10.814,19.766,23.23,28.25,37.219c14.978,24.697,26.72,53.41,35.032,82.781H73.953c8.304-29.371,20.022-58.084,35-82.781
		C117.437,1099.588,126.962,1087.177,137.234,1076.361L137.234,1076.361z M60.421,1276.361h319.187
		c2.376,51.494-13.014,91.787-39.594,120.125v-0.16h-240v0.191c-26.602-28.332-41.966-68.646-39.594-120.154L60.421,1276.361z"/>
	<g>
		<path style="fill:#FFB900;" d="M220.029,1036.358c24.093,0,45.922,8.946,65.312,24.001H154.716
			C174.114,1045.31,195.938,1036.359,220.029,1036.358L220.029,1036.358z"/>
		<path style="fill:#FFB900;" d="M69.716,1212.359h300.626c3.846,16.182,6.494,32.326,8.094,48H61.623
			C63.223,1244.685,65.874,1228.541,69.716,1212.359z"/>
		<path style="fill:#FFB900;" d="M117.748,1412.359h204.531c-27.427,20.703-62.76,32-102.25,32
			C180.538,1444.359,145.183,1433.062,117.748,1412.359z"/>
	</g>
	<g>
		<path style="fill:#464C63;" d="M171.908,1100.468c-4.406,0.068-7.927,3.688-7.875,8.094v23.781
			c-0.062,4.418,3.469,8.051,7.887,8.113s8.051-3.469,8.113-7.887c0.001-0.076,0.001-0.15,0-0.227v-23.781
			c0.052-4.418-3.488-8.043-7.906-8.094C172.053,1100.466,171.981,1100.466,171.908,1100.468z"/>
		<path style="fill:#464C63;" d="M147.501,1116.468c-4.411,0.262-7.774,4.051-7.511,8.463c0.198,3.32,2.43,6.172,5.606,7.162
			l23.906,7.969c1.643,0.549,3.419,0.549,5.062,0l23.875-7.969c4.194-1.398,6.461-5.932,5.064-10.125
			c-1.398-4.195-5.931-6.463-10.126-5.064l-21.344,7.127l-21.374-7.127c-1.013-0.354-2.086-0.5-3.157-0.432V1116.468z"/>
		<path style="fill:#464C63;" d="M171.877,1124.468c-2.62,0.051-5.048,1.383-6.501,3.563l-15.938,23.906
			c-2.493,3.648-1.556,8.627,2.092,11.119c3.648,2.494,8.627,1.557,11.12-2.092c0.035-0.051,0.069-0.102,0.102-0.152l9.28-13.906
			l9.282,13.906c2.387,3.719,7.337,4.797,11.055,2.41c3.718-2.387,4.797-7.336,2.41-11.055c-0.05-0.078-0.101-0.154-0.153-0.23
			l-15.938-23.906C177.175,1125.759,174.607,1124.416,171.877,1124.468L171.877,1124.468z"/>
		<path style="fill:#464C63;" d="M267.908,1100.343c-4.418,0.068-7.944,3.707-7.875,8.125l0,0v23.75
			c-0.062,4.418,3.469,8.051,7.887,8.113c4.418,0.063,8.051-3.469,8.113-7.887c0.001-0.076,0.001-0.15,0-0.227v-23.75
			c0.069-4.418-3.456-8.057-7.875-8.125C268.075,1100.341,267.991,1100.341,267.908,1100.343z"/>
		<path style="fill:#464C63;" d="M244.314,1116.343c-4.415-0.172-8.134,3.268-8.307,7.684c-0.141,3.604,2.148,6.855,5.588,7.941
			l23.906,7.969c1.643,0.549,3.419,0.549,5.062,0l23.875-7.969c4.194-1.398,6.461-5.932,5.064-10.125
			c-1.398-4.195-5.931-6.463-10.126-5.064l0,0l-21.344,7.125l-21.374-7.125c-0.755-0.26-1.546-0.406-2.344-0.432L244.314,1116.343z"
			/>
		<path style="fill:#464C63;" d="M267.877,1124.343c-2.62,0.051-5.048,1.383-6.501,3.563l-15.938,23.906
			c-2.493,3.648-1.556,8.627,2.092,11.119c3.648,2.494,8.627,1.557,11.12-2.092c0.035-0.051,0.068-0.102,0.102-0.152l9.28-13.906
			l9.282,13.906c2.387,3.719,7.337,4.797,11.055,2.41c3.718-2.389,4.797-7.338,2.41-11.057c-0.05-0.076-0.101-0.152-0.153-0.229
			l-15.938-23.906C273.175,1125.634,270.607,1124.291,267.877,1124.343L267.877,1124.343z"/>
		<path style="fill:#464C63;" d="M123.908,1292.468c-4.406,0.068-7.927,3.688-7.875,8.094v23.781
			c-0.062,4.418,3.469,8.051,7.887,8.113s8.051-3.469,8.113-7.887c0.001-0.076,0.001-0.15,0-0.227v-23.781
			c0.052-4.418-3.488-8.043-7.906-8.094C124.053,1292.466,123.981,1292.466,123.908,1292.468z"/>
		<path style="fill:#464C63;" d="M99.501,1308.468c-4.411,0.262-7.774,4.051-7.511,8.463c0.198,3.32,2.43,6.172,5.606,7.162
			l23.906,7.969c1.643,0.549,3.419,0.549,5.062,0l23.875-7.969c4.194-1.398,6.461-5.932,5.064-10.125
			c-1.398-4.195-5.931-6.463-10.126-5.064l-21.344,7.127l-21.374-7.127c-1.013-0.354-2.086-0.5-3.157-0.432V1308.468z"/>
		<path style="fill:#464C63;" d="M123.877,1316.468c-2.62,0.051-5.048,1.383-6.501,3.563l-15.938,23.906
			c-2.493,3.648-1.556,8.627,2.092,11.119c3.648,2.494,8.627,1.557,11.12-2.092c0.035-0.051,0.069-0.102,0.102-0.152l9.28-13.906
			l9.282,13.906c2.387,3.719,7.337,4.797,11.055,2.41c3.718-2.387,4.797-7.336,2.41-11.055c-0.05-0.078-0.101-0.154-0.153-0.23
			l-15.938-23.906C129.175,1317.759,126.607,1316.416,123.877,1316.468L123.877,1316.468z"/>
		<path style="fill:#464C63;" d="M219.908,1300.468c-4.406,0.068-7.927,3.688-7.875,8.094v23.781
			c-0.062,4.418,3.469,8.051,7.887,8.113c4.418,0.063,8.051-3.469,8.113-7.887c0.001-0.076,0.001-0.15,0-0.227v-23.781
			c0.052-4.418-3.488-8.043-7.906-8.094C220.053,1300.466,219.981,1300.466,219.908,1300.468z"/>
		<path style="fill:#464C63;" d="M195.501,1316.468c-4.411,0.262-7.774,4.051-7.511,8.463c0.198,3.32,2.43,6.172,5.606,7.162
			l23.906,7.969c1.643,0.549,3.419,0.549,5.062,0l23.875-7.969c4.194-1.398,6.461-5.932,5.064-10.125
			c-1.398-4.195-5.931-6.463-10.126-5.064l-21.344,7.127l-21.374-7.127c-1.013-0.354-2.086-0.5-3.157-0.432V1316.468z"/>
		<path style="fill:#464C63;" d="M219.877,1324.468c-2.62,0.051-5.048,1.383-6.501,3.563l-15.938,23.906
			c-2.493,3.648-1.556,8.627,2.092,11.119c3.648,2.494,8.627,1.557,11.12-2.092c0.035-0.051,0.069-0.102,0.102-0.152l9.28-13.906
			l9.282,13.906c2.387,3.719,7.337,4.797,11.055,2.41c3.718-2.389,4.797-7.338,2.41-11.057c-0.05-0.076-0.101-0.152-0.153-0.229
			l-15.938-23.906C225.175,1325.759,222.607,1324.416,219.877,1324.468z"/>
		<path style="fill:#464C63;" d="M316.002,1292.312c-4.406,0.068-7.927,3.688-7.875,8.094v23.781
			c-0.062,4.418,3.469,8.051,7.887,8.113c4.418,0.063,8.051-3.469,8.113-7.887c0.001-0.076,0.001-0.15,0-0.227v-23.781
			c0.052-4.418-3.488-8.043-7.906-8.094C316.148,1292.31,316.075,1292.31,316.002,1292.312z"/>
		<path style="fill:#464C63;" d="M291.626,1308.312c-4.411,0.262-7.774,4.051-7.511,8.463c0.198,3.32,2.43,6.172,5.606,7.162
			l23.875,7.969c1.643,0.549,3.419,0.549,5.062,0l23.906-7.969c4.194-1.398,6.46-5.932,5.063-10.125
			c-1.398-4.193-5.931-6.461-10.125-5.063l-21.374,7.125l-21.344-7.125c-1.013-0.354-2.086-0.5-3.157-0.432L291.626,1308.312z"/>
		<path style="fill:#464C63;" d="M316.002,1316.312c-2.63,0.041-5.072,1.373-6.531,3.563l-15.938,23.906
			c-2.514,3.633-1.606,8.617,2.027,11.131c3.634,2.516,8.618,1.607,11.132-2.027c0.052-0.074,0.103-0.15,0.153-0.229l9.282-13.938
			l9.282,13.938c2.387,3.719,7.337,4.797,11.055,2.41c3.718-2.389,4.797-7.338,2.41-11.057c-0.05-0.076-0.101-0.152-0.153-0.229
			l-15.938-23.906C321.275,1317.613,318.721,1316.271,316.002,1316.312L316.002,1316.312z"/>
	</g>
</g>
<g>
</g>
<g>
</g>
<g>
</g>
<g>
</g>
<g>
</g>
<g>
</g>
<g>
</g>
<g>
</g>
<g>
</g>
<g>
</g>
<g>
</g>
<g>
</g>
<g>
</g>
<g>
</g>
<g>
</g>
</svg>
