<?xml version="1.0" encoding="iso-8859-1"?>
<!-- Generator: Adobe Illustrator 19.0.0, SVG Export Plug-In . SVG Version: 6.00 Build 0)  -->
<svg version="1.1" id="Layer_1" xmlns="http://www.w3.org/2000/svg" xmlns:xlink="http://www.w3.org/1999/xlink" x="0px" y="0px"
	 viewBox="0 0 512 512" style="enable-background:new 0 0 512 512;" xml:space="preserve">
<path style="fill:#E86F22;" d="M443.037,293.477c0,137.057-83.739,210.686-187.037,210.686S68.963,430.535,68.963,293.477
	S152.702,7.837,256,7.837S443.037,156.421,443.037,293.477z"/>
<path style="fill:#C9571E;" d="M397.51,439.651c-34.283,42.454-84.971,64.512-141.511,64.512
	c-103.299,0-187.037-73.634-187.037-210.683c0-97.468,42.35-200.767,103.967-252.301C125.482,97.05,94.563,184.592,94.563,267.88
	c0,137.049,83.738,210.683,187.037,210.683C325.381,478.563,365.652,465.335,397.51,439.651z"/>
<g>
	<path style="fill:#FFE666;" d="M416.611,156.244c-12.298,1.108-23.991,0.115-33.489-4.389
		C343.416,133.047,303.02,236.847,256,236.847c-47.031,0-87.427-103.8-127.133-84.992c-9.498,4.504-21.191,5.486-33.479,4.389
		C128.042,72.694,187.747,7.837,256,7.837S383.958,72.694,416.611,156.244z"/>
	<path style="fill:#FFE666;" d="M443.037,293.48c0,11.849-0.627,23.228-1.839,34.116c-22.643,0.637-22.841,39.685-45.861,39.685
		c-23.218,0-23.218-39.706-46.435-39.706c-23.218,0-23.218,39.706-46.435,39.706c-23.228,0-23.228-39.706-46.446-39.706
		c-23.218,0-23.218,39.706-46.435,39.706c-23.228,0-23.228-39.706-46.446-39.706s-23.218,39.706-46.435,39.706
		c-23.04,0-23.218-39.09-45.902-39.696c-1.212-10.888-1.839-22.256-1.839-34.105c0-1.536,0.01-3.072,0.031-4.608
		c0.408,0.031,0.815,0.042,1.233,0.042c23.218,0,23.218-39.706,46.435-39.706s23.218,39.706,46.435,39.706
		s23.218-39.706,46.435-39.706c23.228,0,23.228,39.706,46.446,39.706s23.218-39.706,46.435-39.706
		c23.228,0,23.228,39.706,46.446,39.706c23.218,0,23.218-39.706,46.435-39.706c23.218,0,23.218,39.706,46.435,39.706
		c0.428,0,0.857-0.01,1.275-0.052C443.026,290.408,443.037,291.944,443.037,293.48z"/>
</g>
<path style="fill:#EDD147;" d="M112.41,366.78c-18.871-4.514-20.428-38.63-41.608-39.194c-1.212-10.888-1.839-22.256-1.839-34.105
	c0-1.536,0.01-3.072,0.031-4.608c0.408,0.031,0.815,0.042,1.233,0.042c12.361,0,18.139-11.254,24.336-21.776v0.742
	C94.563,305.768,100.968,338.808,112.41,366.78z"/>
<path style="fill:#6E76E5;" d="M258.631,204.146c-1.533,1.246-3.724,1.246-5.257,0c-14.716-11.952-85.212-72.281-56.32-109.029
	c28.473-36.208,58.949,7.939,58.949,7.939s30.467-44.148,58.941-7.939C343.842,131.865,273.347,192.194,258.631,204.146z"/>
<path style="fill:#515BE0;" d="M272.75,191.895c-6.094,5.616-11.205,9.887-14.123,12.255c-1.533,1.244-3.724,1.241-5.256-0.003
	c-14.47-11.753-82.844-70.264-57.683-107.149C208.624,137.435,258.539,180.297,272.75,191.895z"/>
<path d="M256,512c54.32,0,103.305-20.022,137.93-56.379c37.253-39.116,56.944-95.184,56.944-162.144
	c0-75.967-24.919-156.1-66.656-214.356c-2.521-3.518-7.417-4.327-10.935-1.807c-3.518,2.52-4.327,7.417-1.807,10.935
	c13.045,18.206,24.357,38.671,33.694,60.501c-7.325-0.253-13.602-1.564-18.693-3.978c-26.071-12.35-49.872,14.541-72.888,40.545
	c-19.012,21.48-38.672,43.691-57.589,43.691c-16.913,0-34.705-18.18-50.056-35.22c-2.895-3.216-7.851-3.474-11.068-0.578
	c-3.216,2.896-3.474,7.852-0.578,11.068c17.61,19.548,38.352,40.404,61.701,40.404c25.976,0,48.013-24.899,69.326-48.978
	c20.061-22.667,39.007-44.081,54.439-36.77c8.654,4.103,19.297,5.939,31.691,5.484c13.522,36.182,21.695,75.405,23.399,114.022
	c-3.209-2.679-6.041-7.287-9.578-13.336c-6.183-10.574-13.877-23.734-29.982-23.734s-23.8,13.16-29.983,23.734
	c-5.79,9.903-9.682,15.972-16.452,15.972c-6.769,0-10.662-6.069-16.453-15.969c-6.185-10.575-13.883-23.737-29.993-23.737
	c-16.105,0-23.8,13.159-29.982,23.734c-5.791,9.903-9.683,15.972-16.453,15.972c-6.769,0-10.662-6.069-16.453-15.969
	c-6.185-10.575-13.883-23.737-29.993-23.737c-16.104,0-23.8,13.159-29.982,23.734c-5.791,9.903-9.684,15.972-16.453,15.972
	s-10.662-6.07-16.452-15.972c-6.184-10.573-13.878-23.734-29.983-23.734c-16.104,0-23.8,13.159-29.982,23.734
	c-3.514,6.009-6.331,10.594-9.514,13.281c1.769-38.203,10.122-77.63,23.653-113.963c12.286,0.413,22.831-1.421,31.402-5.486
	c9.959-4.715,21.67,1.444,40.425,21.266c1.541,1.629,3.615,2.45,5.694,2.45c1.933,0,3.87-0.711,5.384-2.144
	c3.144-2.975,3.281-7.935,0.306-11.079c-16.922-17.884-37.107-34.799-58.522-24.656c-5.025,2.383-11.222,3.69-18.453,3.963
	C138.883,73.81,193.032,15.673,256,15.673c33.07,0,66.102,16.64,95.526,48.123c2.957,3.162,7.915,3.33,11.077,0.374
	c3.162-2.956,3.33-7.915,0.374-11.077C330.514,18.36,293.521,0,256,0c-26.555,0-52.588,9.027-77.375,26.83
	c-22.773,16.355-43.474,39.33-61.53,68.285c-35.569,57.039-55.969,129.34-55.969,198.362c0,66.96,19.691,123.028,56.944,162.144
	C152.695,491.978,201.68,512,256,512z M256,496.327c-93.812,0-159.012-59.137-175.246-154.348c1.885,2.515,3.79,5.686,5.966,9.408
	c6.184,10.573,13.878,23.732,29.984,23.732c16.105,0,23.8-13.16,29.983-23.734c5.791-9.902,9.683-15.972,16.452-15.972
	s10.662,6.069,16.453,15.969c6.185,10.575,13.883,23.737,29.993,23.737c16.105,0,23.8-13.159,29.982-23.734
	c5.791-9.904,9.683-15.972,16.453-15.972c6.769,0,10.662,6.069,16.453,15.969c6.185,10.575,13.883,23.737,29.993,23.737
	c16.104,0,23.8-13.159,29.982-23.734c5.791-9.904,9.683-15.972,16.453-15.972s10.662,6.07,16.452,15.972
	c6.184,10.573,13.879,23.734,29.983,23.734c16.1,0,23.794-13.156,29.978-23.728c2.159-3.691,4.049-6.842,5.919-9.347
	C414.982,437.218,349.79,496.327,256,496.327z M100.211,273.017c5.791-9.902,9.683-15.972,16.452-15.972
	c6.769,0,10.662,6.07,16.453,15.972c6.183,10.574,13.878,23.734,29.982,23.734c16.105,0,23.8-13.16,29.983-23.734
	c5.791-9.902,9.683-15.972,16.452-15.972c6.776,0,10.671,6.071,16.463,15.977c6.184,10.572,13.879,23.73,29.982,23.73
	c16.105,0,23.8-13.16,29.983-23.734c5.791-9.902,9.683-15.972,16.452-15.972c6.776,0,10.671,6.071,16.463,15.977
	c6.184,10.572,13.879,23.73,29.982,23.73c16.105,0,23.8-13.159,29.982-23.734c5.791-9.904,9.684-15.972,16.453-15.972
	c6.769,0,10.662,6.07,16.452,15.972c5.278,9.025,11.661,19.927,23.431,22.929c-0.066,8.536-0.464,16.864-1.197,24.963
	c-10.995,3.434-17.115,13.887-22.194,22.568c-5.791,9.9-9.684,15.968-16.45,15.968c-6.77,0-10.662-6.07-16.453-15.972
	c-6.183-10.574-13.878-23.734-29.982-23.734c-16.105,0-23.8,13.16-29.983,23.734c-5.79,9.903-9.682,15.972-16.452,15.972
	c-6.776,0-10.671-6.071-16.463-15.977c-6.184-10.572-13.879-23.73-29.982-23.73c-16.105,0-23.8,13.16-29.983,23.734
	c-5.79,9.903-9.682,15.972-16.452,15.972c-6.776,0-10.671-6.071-16.463-15.977c-6.184-10.572-13.879-23.73-29.982-23.73
	c-16.105,0-23.8,13.159-29.982,23.734c-5.791,9.903-9.684,15.972-16.453,15.972c-6.771,0-10.664-6.069-16.455-15.971
	c-5.083-8.694-11.212-19.161-22.231-22.585c-0.734-8.096-1.131-16.421-1.196-24.953C88.565,292.919,94.939,282.032,100.211,273.017z
	 M289.379,73.032c-14.378,0.448-26.413,10.431-33.377,17.798c-6.966-7.365-19.005-17.349-33.384-17.798
	c-11.774-0.363-22.439,5.435-31.724,17.241c-32.604,41.469,35.799,102.3,57.539,119.955c2.193,1.782,4.882,2.673,7.57,2.673
	c2.687,0,5.376-0.891,7.569-2.672c21.741-17.657,90.143-78.489,57.532-119.956C311.818,78.466,301.126,72.66,289.379,73.032z
	 M256.002,196.155c-14.698-12.301-76.086-66.56-52.789-96.193c5.96-7.58,11.982-11.271,18.393-11.271
	c0.161,0,0.324,0.002,0.486,0.007c12.018,0.348,23.903,13.707,27.46,18.811l6.43,9.287l6.46-9.275
	c3.564-5.117,15.446-18.476,27.462-18.825c6.571-0.183,12.767,3.492,18.878,11.264C332.086,129.593,270.7,183.854,256.002,196.155z"
	/>
<circle cx="116.161" cy="306.166" r="7.837"/>
<circle cx="208.802" cy="306.166" r="7.837"/>
<circle cx="303.104" cy="306.166" r="7.837"/>
<circle cx="398.451" cy="306.166" r="7.837"/>
<g>
</g>
<g>
</g>
<g>
</g>
<g>
</g>
<g>
</g>
<g>
</g>
<g>
</g>
<g>
</g>
<g>
</g>
<g>
</g>
<g>
</g>
<g>
</g>
<g>
</g>
<g>
</g>
<g>
</g>
</svg>
