<?xml version="1.0" encoding="iso-8859-1"?>
<!-- Generator: Adobe Illustrator 19.0.0, SVG Export Plug-In . SVG Version: 6.00 Build 0)  -->
<svg version="1.1" id="Layer_1" xmlns="http://www.w3.org/2000/svg" xmlns:xlink="http://www.w3.org/1999/xlink" x="0px" y="0px"
	 viewBox="0 0 511.997 511.997" style="enable-background:new 0 0 511.997 511.997;" xml:space="preserve">
<path style="fill:#F2F2F2;" d="M451.544,295.316c0,134.82-87.599,207.542-195.657,207.542S60.231,430.136,60.231,295.316
	S147.83,9.145,255.888,9.145S451.544,160.495,451.544,295.316z"/>
<path style="fill:#E6E6E6;" d="M255.885,9.149c-73.293,0-132.7,151.352-132.7,286.173c0,133.76,58.481,206.395,130.981,207.528
	c-107.257-0.768-193.935-73.439-193.935-207.528C60.231,160.501,147.836,9.149,255.885,9.149z"/>
<path style="fill:#FCC447;" d="M451.537,295.322c0,11.618-0.646,22.773-1.914,33.464H62.143
	c-1.268-10.692-1.914-21.846-1.914-33.464c0-16.129,1.256-32.501,3.645-48.825h384.018
	C450.281,262.821,451.537,279.193,451.537,295.322z"/>
<path style="fill:#FC675B;" d="M433.702,185.81c-0.561,0.744-22.456,29.697-47.387,29.697c-32.611,0-32.611-34.135-65.222-34.135
	s-32.611,34.135-65.222,34.135s-32.611-34.135-65.21-34.135c-31.124,0-32.538,31.087-60.955,33.928
	c-1.353,0.134-2.78,0.207-4.267,0.207c-24.931,0-46.814-28.954-47.374-29.697c11.679-36.232,28.625-70.257,49.447-98.601
	c9.741,8.241,20.335,15.349,31.624,21.31c28.539,15.068,61.565,22.773,96.748,22.773c49.118,0,94.017-15.019,128.372-44.083
	C405.077,115.553,422.023,149.578,433.702,185.81z"/>
<path style="fill:#CEC73C;" d="M431.129,396.581c-14.093,30.6-34.842,54.835-60.187,72.391
	c-32.294-22.371-72.049-33.891-115.059-33.891c-32.574,0-63.272,6.608-90.287,19.53c-8.656,4.145-16.933,8.936-24.772,14.361
	c-25.345-17.555-46.094-41.791-60.187-72.391l0.439-0.207c0,0,20.725-27.808,44.375-27.808c1.585,0,3.084,0.085,4.523,0.232
	c28.161,2.999,29.673,33.903,60.699,33.903c32.611,0,32.611-34.135,65.222-34.135s32.611,34.135,65.222,34.135
	c32.599,0,32.599-34.135,65.21-34.135c23.638,0,44.363,27.808,44.363,27.808L431.129,396.581z"/>
<path style="fill:#BAB031;" d="M165.596,454.611c-8.656,4.145-16.933,8.936-24.772,14.361
	c-25.345-17.555-46.094-41.791-60.187-72.391l0.439-0.207c0,0,20.725-27.808,44.375-27.808c1.585,0,3.084,0.085,4.523,0.232
	C137.093,404.262,149.479,432.984,165.596,454.611z"/>
<path style="fill:#E8AF3D;" d="M124.488,328.787H62.143c-1.268-10.692-1.914-21.846-1.914-33.464
	c0-16.129,1.256-32.501,3.645-48.825h61.784c-1.621,16.324-2.475,32.696-2.475,48.825
	C123.183,306.94,123.622,318.095,124.488,328.787z"/>
<path style="fill:#E8564F;" d="M78.064,185.81c11.679-36.232,28.625-70.257,49.447-98.601c9.741,8.241,20.335,15.349,31.624,21.31
	c-13.179,31.733-23.321,68.599-29.429,106.781c-1.353,0.134-2.78,0.207-4.267,0.207C100.508,215.507,78.625,186.554,78.064,185.81z"
	/>
<path d="M402.023,96.702c-19.009-29.361-40.758-52.68-64.643-69.307C311.269,9.216,283.888,0,255.997,0
	c-23.827,0-47.428,6.789-70.146,20.177c-4.35,2.564-5.798,8.169-3.234,12.52c2.565,4.351,8.169,5.798,12.52,3.234
	c19.865-11.708,40.343-17.645,60.86-17.645c24.082,0,47.949,8.114,70.935,24.115c21.618,15.05,42.277,37.263,59.74,64.237
	c15.09,23.308,27.547,49.697,36.843,77.318c-7.423,8.5-22.601,22.401-37.086,22.401c-12.395,0-18.399-6.285-26-14.24
	c-8.468-8.864-19.006-19.895-39.222-19.895s-30.754,11.032-39.222,19.895c-7.601,7.956-13.605,14.24-26,14.24
	c-12.396,0-18.4-6.285-26-14.242c-8.465-8.863-19.001-19.893-39.21-19.893c-20.216,0-30.754,11.032-39.222,19.895
	c-7.601,7.956-13.605,14.24-26,14.24c-14.51,0-29.71-13.949-37.114-22.445c10.233-30.335,24.231-58.911,41.053-83.512
	c34.608,26.219,78.112,40.031,126.5,40.031c38.345,0,74.721-9.025,105.198-26.1c4.405-2.467,5.976-8.04,3.507-12.446
	c-2.467-4.406-8.039-5.976-12.446-3.507c-27.752,15.548-61.037,23.766-96.258,23.766c-44.451,0-84.25-12.593-115.699-36.5
	c9.955-12.676,20.717-23.988,32.13-33.556c3.869-3.244,4.377-9.01,1.133-12.881c-3.245-3.871-9.012-4.377-12.881-1.133
	c-31.965,26.798-59.388,65.843-79.302,112.91c-19.74,46.656-30.174,96.564-30.174,144.327c0,66.364,20.754,121.978,60.019,160.828
	c36.405,36.02,87.823,55.857,144.781,55.857s108.376-19.837,144.781-55.857c39.265-38.85,60.019-94.464,60.019-160.828
	C460.797,227.796,438.826,153.549,402.023,96.702z M86.455,207.597c13.232,11.312,26.386,17.048,39.097,17.048
	c20.216,0,30.754-11.032,39.222-19.895c7.601-7.956,13.605-14.24,26-14.24c12.387,0,18.389,6.283,25.986,14.237
	c8.467,8.865,19.006,19.898,39.223,19.898c20.216,0,30.754-11.032,39.222-19.895c7.601-7.956,13.605-14.24,26-14.24
	c12.395,0,18.399,6.285,26,14.24c8.468,8.864,19.006,19.895,39.222,19.895c12.71,0,25.866-5.736,39.102-17.047
	c1.451-1.24,2.811-2.477,4.091-3.689c3.051,11.062,5.582,22.246,7.578,33.443H157.156c-5.05,0-9.143,4.094-9.143,9.143
	s4.094,9.143,9.143,9.143H439.97c1.665,13.36,2.541,26.651,2.541,39.676c0,8.303-0.357,16.413-1.044,24.327H70.528
	c-0.686-7.914-1.044-16.024-1.044-24.327c0-13.126,0.857-26.406,2.497-39.676h57.745c5.05,0,9.143-4.094,9.143-9.143
	s-4.094-9.143-9.143-9.143H74.737c1.997-11.256,4.535-22.452,7.582-33.488C83.612,205.09,84.987,206.342,86.455,207.597z
	 M158.111,468.929c28.209-16.202,61.745-24.708,97.882-24.708c36.139,0,69.678,8.507,97.887,24.71
	c-28.187,16.15-61.768,24.781-97.882,24.781C219.883,493.713,186.299,485.08,158.111,468.929z M387.917,443.144
	c-5.346,5.29-11.062,10.186-17.102,14.69c-32.554-20.886-72.097-31.898-114.823-31.898c-42.724,0-82.264,11.011-114.817,31.895
	c-6.038-4.503-11.753-9.399-17.097-14.687c-13.126-12.987-23.968-28.113-32.444-45.089c7.005-7.908,20.806-20.351,33.931-20.351
	c12.395,0,18.399,6.284,26,14.24c8.468,8.864,19.006,19.895,39.222,19.895s30.754-11.032,39.222-19.895
	c7.601-7.956,13.605-14.24,26-14.24c12.395,0,18.399,6.284,26,14.24c8.468,8.864,19.006,19.895,39.222,19.895
	c5.05,0,9.143-4.094,9.143-9.143s-4.094-9.143-9.143-9.143c-12.395,0-18.399-6.284-26-14.24
	c-8.468-8.864-19.006-19.895-39.222-19.895c-20.216,0-30.754,11.032-39.222,19.895c-7.601,7.956-13.605,14.24-26,14.24
	s-18.399-6.284-26-14.24c-8.468-8.864-19.006-19.895-39.222-19.895c-17.167,0-32.4,11.416-41.818,20.509
	c-4.922-13.12-8.59-27.154-10.973-41.999h366.449c-2.382,14.841-6.05,28.872-10.968,41.988c-1.476-1.431-3.087-2.916-4.826-4.401
	c-12.499-10.681-24.943-16.096-36.985-16.096c-20.218,0-30.757,11.033-39.224,19.898c-2.63,2.753-5.112,5.352-7.758,7.562
	c-3.876,3.237-4.394,9.003-1.157,12.879s9.003,4.394,12.879,1.157c3.437-2.87,6.398-5.97,9.26-8.967
	c7.601-7.957,13.604-14.242,26.001-14.242c13.121,0,26.924,12.451,33.92,20.351C411.885,415.031,401.042,430.157,387.917,443.144z"
	/>
<path d="M374.768,305.742c1.785,1.786,4.125,2.678,6.465,2.678s4.68-0.892,6.465-2.678l5.173-5.173l5.173,5.173
	c1.785,1.786,4.125,2.678,6.465,2.678s4.68-0.892,6.465-2.678c3.571-3.571,3.571-9.359,0-12.93l-5.173-5.173l5.173-5.173
	c3.571-3.571,3.571-9.359,0-12.93c-3.571-3.571-9.36-3.571-12.93,0l-5.173,5.173l-5.173-5.173c-3.571-3.571-9.36-3.571-12.93,0
	c-3.571,3.571-3.571,9.359,0,12.93l5.173,5.173l-5.173,5.173C371.197,296.383,371.197,302.171,374.768,305.742z"/>
<path d="M283.519,305.742c1.785,1.786,4.125,2.678,6.465,2.678c2.339,0,4.68-0.892,6.465-2.678l5.173-5.173l5.173,5.173
	c1.785,1.786,4.125,2.678,6.465,2.678s4.68-0.892,6.465-2.678c3.571-3.571,3.571-9.359,0-12.93l-5.173-5.173l5.173-5.173
	c3.571-3.571,3.571-9.359,0-12.93c-3.571-3.571-9.36-3.571-12.93,0l-5.173,5.173l-5.173-5.173c-3.571-3.571-9.36-3.571-12.93,0
	c-3.571,3.571-3.571,9.359,0,12.93l5.173,5.173l-5.173,5.173C279.948,296.383,279.948,302.171,283.519,305.742z"/>
<path d="M192.271,305.742c1.785,1.786,4.125,2.678,6.465,2.678c2.339,0,4.68-0.892,6.465-2.678l5.173-5.173l5.173,5.173
	c1.785,1.786,4.125,2.678,6.465,2.678s4.68-0.892,6.465-2.678c3.571-3.571,3.571-9.359,0-12.93l-5.173-5.173l5.173-5.173
	c3.571-3.571,3.571-9.359,0-12.93c-3.571-3.571-9.36-3.571-12.93,0l-5.173,5.173l-5.173-5.173c-3.571-3.571-9.36-3.571-12.93,0
	c-3.571,3.571-3.571,9.359,0,12.93l5.173,5.173l-5.173,5.173C188.699,296.383,188.699,302.171,192.271,305.742z"/>
<path d="M137.227,269.537c-3.571-3.571-9.36-3.571-12.93,0l-5.173,5.173l-5.173-5.173c-3.571-3.571-9.36-3.571-12.93,0
	c-3.571,3.571-3.571,9.359,0,12.93l5.173,5.173l-5.173,5.173c-3.571,3.571-3.571,9.359,0,12.93c1.785,1.786,4.125,2.678,6.465,2.678
	s4.68-0.892,6.465-2.678l5.173-5.173l5.173,5.173c1.785,1.786,4.125,2.678,6.465,2.678s4.68-0.892,6.465-2.678
	c3.571-3.571,3.571-9.359,0-12.93l-5.173-5.173l5.173-5.173C140.798,278.896,140.798,273.108,137.227,269.537z"/>
<circle cx="386.43" cy="176.6" r="9.143"/>
<circle cx="255.985" cy="176.6" r="9.143"/>
<circle cx="125.553" cy="176.6" r="9.143"/>
<circle cx="386.43" cy="396.624" r="9.143"/>
<circle cx="255.985" cy="396.624" r="9.143"/>
<circle cx="125.553" cy="396.624" r="9.143"/>
<g>
</g>
<g>
</g>
<g>
</g>
<g>
</g>
<g>
</g>
<g>
</g>
<g>
</g>
<g>
</g>
<g>
</g>
<g>
</g>
<g>
</g>
<g>
</g>
<g>
</g>
<g>
</g>
<g>
</g>
</svg>
